<svg width="21" height="14" viewBox="0 0 21 14" fill="none" xmlns="http://www.w3.org/2000/svg">
<path d="M13.127 5L17.68 2.724C17.8324 2.64784 18.0017 2.61188 18.1719 2.61955C18.3422 2.62721 18.5076 2.67825 18.6526 2.76781C18.7975 2.85736 18.9172 2.98248 19.0002 3.13127C19.0832 3.28007 19.1269 3.44761 19.127 3.618V10.382C19.1269 10.5524 19.0832 10.7199 19.0002 10.8687C18.9172 11.0175 18.7975 11.1426 18.6526 11.2322C18.5076 11.3218 18.3422 11.3728 18.1719 11.3805C18.0017 11.3881 17.8324 11.3522 17.68 11.276L13.127 9V5ZM1.12695 3C1.12695 2.46957 1.33767 1.96086 1.71274 1.58579C2.08781 1.21071 2.59652 1 3.12695 1H11.127C11.6574 1 12.1661 1.21071 12.5412 1.58579C12.9162 1.96086 13.127 2.46957 13.127 3V11C13.127 11.5304 12.9162 12.0391 12.5412 12.4142C12.1661 12.7893 11.6574 13 11.127 13H3.12695C2.59652 13 2.08781 12.7893 1.71274 12.4142C1.33767 12.0391 1.12695 11.5304 1.12695 11V3Z" stroke="black" stroke-width="2" stroke-linecap="round" stroke-linejoin="round"/>
</svg>
