<svg width="4" height="14" viewBox="0 0 4 14" fill="none" xmlns="http://www.w3.org/2000/svg">
<path d="M4 11.5C4 10.5335 3.2165 9.75 2.25 9.75C1.2835 9.75 0.5 10.5335 0.5 11.5C0.5 12.4665 1.2835 13.25 2.25 13.25C3.2165 13.25 4 12.4665 4 11.5Z" fill="black"/>
<path d="M4 7C4 6.0335 3.2165 5.25 2.25 5.25C1.2835 5.25 0.5 6.0335 0.5 7C0.5 7.9665 1.2835 8.75 2.25 8.75C3.2165 8.75 4 7.9665 4 7Z" fill="black"/>
<path d="M4 2.5C4 1.5335 3.2165 0.75 2.25 0.75C1.2835 0.75 0.5 1.5335 0.5 2.5C0.5 3.4665 1.2835 4.25 2.25 4.25C3.2165 4.25 4 3.4665 4 2.5Z" fill="black"/>
</svg>
