<svg width="22" height="23" viewBox="0 0 22 23" fill="none" xmlns="http://www.w3.org/2000/svg">
<path d="M15 9.5C16.1046 9.5 17 8.60457 17 7.5C17 6.39543 16.1046 5.5 15 5.5C13.8954 5.5 13 6.39543 13 7.5C13 8.60457 13.8954 9.5 15 9.5Z" stroke="black" stroke-width="1.5"/>
<path d="M1 11.9999L2.752 10.4669C3.19114 10.083 3.75974 9.88023 4.34272 9.89972C4.9257 9.91922 5.47949 10.1595 5.892 10.5719L10.182 14.8619C10.5149 15.1947 10.9546 15.3995 11.4235 15.4401C11.8925 15.4807 12.3608 15.3546 12.746 15.0839L13.045 14.8739C13.6006 14.4837 14.2721 14.2935 14.9498 14.3343C15.6275 14.3752 16.2713 14.6447 16.776 15.0989L20 17.9999" stroke="black" stroke-width="1.5" stroke-linecap="round"/>
<path d="M21 11.5C21 16.214 21 18.571 19.535 20.035C18.072 21.5 15.714 21.5 11 21.5C6.286 21.5 3.929 21.5 2.464 20.035C1 18.572 1 16.214 1 11.5C1 6.786 1 4.429 2.464 2.964C3.93 1.5 6.286 1.5 11 1.5C15.714 1.5 18.071 1.5 19.535 2.964C20.509 3.938 20.835 5.307 20.945 7.5" stroke="black" stroke-width="1.5" stroke-linecap="round"/>
</svg>
