<svg width="24" height="25" viewBox="0 0 24 25" fill="none" xmlns="http://www.w3.org/2000/svg">
<path d="M12.0002 3.5C11.2045 3.5 10.4415 3.81607 9.87885 4.37868C9.31625 4.94129 9.00018 5.70435 9.00018 6.5V10.5C9.00018 11.2956 9.31625 12.0587 9.87885 12.6213C10.4415 13.1839 11.2045 13.5 12.0002 13.5C12.7958 13.5 13.5589 13.1839 14.1215 12.6213C14.6841 12.0587 15.0002 11.2956 15.0002 10.5V6.5C15.0002 5.70435 14.6841 4.94129 14.1215 4.37868C13.5589 3.81607 12.7958 3.5 12.0002 3.5ZM12.0002 1.5C12.6568 1.5 13.307 1.62933 13.9136 1.8806C14.5202 2.13188 15.0714 2.50017 15.5357 2.96447C16 3.42876 16.3683 3.97995 16.6196 4.58658C16.8708 5.19321 17.0002 5.84339 17.0002 6.5V10.5C17.0002 11.8261 16.4734 13.0979 15.5357 14.0355C14.598 14.9732 13.3263 15.5 12.0002 15.5C10.6741 15.5 9.40232 14.9732 8.46464 14.0355C7.52696 13.0979 7.00018 11.8261 7.00018 10.5V6.5C7.00018 5.17392 7.52696 3.90215 8.46464 2.96447C9.40232 2.02678 10.6741 1.5 12.0002 1.5ZM3.05518 11.5H5.07018C5.31247 13.1648 6.14605 14.6867 7.41841 15.7873C8.69077 16.8879 10.3169 17.4936 11.9992 17.4936C13.6815 17.4936 15.3076 16.8879 16.5799 15.7873C17.8523 14.6867 18.6859 13.1648 18.9282 11.5H20.9442C20.7168 13.5287 19.8068 15.4199 18.3634 16.8635C16.92 18.3071 15.0289 19.2174 13.0002 19.445V23.5H11.0002V19.445C8.97131 19.2176 7.07996 18.3074 5.63635 16.8638C4.19274 15.4202 3.28259 13.5289 3.05518 11.5Z" fill="black"/>
</svg>
