<svg width="12" height="14" viewBox="0 0 12 14" fill="none" xmlns="http://www.w3.org/2000/svg">
<mask id="path-1-outside-1_490_3159" maskUnits="userSpaceOnUse" x="0.126953" y="-0.62793" width="12" height="15" fill="black">
<rect fill="white" x="0.126953" y="-0.62793" width="12" height="15"/>
<path d="M2.15435 4.21631C1.96335 2.95831 2.85035 1.82831 4.20535 1.41431C4.44581 1.34129 4.70504 1.36245 4.93048 1.47349C5.15591 1.58454 5.33068 1.77716 5.41935 2.01231L5.85435 3.17231C5.92437 3.35892 5.93704 3.5622 5.89071 3.75606C5.84438 3.94992 5.74118 4.12552 5.59435 4.26031L4.30035 5.44531C4.23648 5.50378 4.1889 5.57784 4.16225 5.66023C4.13561 5.74262 4.13082 5.83051 4.14835 5.91531L4.16035 5.96731L4.19135 6.09731C4.35268 6.72882 4.59786 7.33589 4.92035 7.90231C5.27247 8.50373 5.7089 9.05162 6.21635 9.52931L6.25635 9.56531C6.32095 9.62265 6.3993 9.66228 6.48377 9.68033C6.56824 9.69838 6.65595 9.69424 6.73835 9.66831L8.41135 9.14131C8.60148 9.08161 8.80511 9.08009 8.99612 9.13692C9.18712 9.19376 9.35679 9.30637 9.48335 9.46031L10.2753 10.4213C10.6053 10.8213 10.5653 11.4093 10.1863 11.7623C9.14935 12.7293 7.72335 12.9273 6.73135 12.1303C5.51486 11.15 4.4897 9.95363 3.70735 8.60131C2.91734 7.25077 2.39106 5.76293 2.15435 4.21631ZM5.19635 5.98131L6.26835 4.99731C6.56218 4.72784 6.76878 4.37671 6.86161 3.98898C6.95445 3.60125 6.92928 3.19463 6.78935 2.82131L6.35535 1.66131C6.1773 1.18808 5.82579 0.800369 5.37223 0.57693C4.91866 0.353491 4.39705 0.311078 3.91335 0.458308C2.23035 0.973308 0.879347 2.48231 1.16535 4.36731C1.36535 5.68331 1.82635 7.35731 2.84335 9.10531C3.68746 10.5634 4.79329 11.8533 6.10535 12.9103C7.59335 14.1053 9.57935 13.6973 10.8693 12.4953C11.2385 12.1516 11.4625 11.68 11.4958 11.1768C11.529 10.6736 11.369 10.1766 11.0483 9.78731L10.2563 8.82531C10.003 8.51779 9.66354 8.29296 9.28155 8.17964C8.89955 8.06633 8.49242 8.06969 8.11235 8.18931L6.72335 8.62631C6.36469 8.25657 6.05055 7.8461 5.78735 7.40331C5.53336 6.95553 5.33522 6.4783 5.19735 5.98231"/>
</mask>
<path d="M2.15435 4.21631C1.96335 2.95831 2.85035 1.82831 4.20535 1.41431C4.44581 1.34129 4.70504 1.36245 4.93048 1.47349C5.15591 1.58454 5.33068 1.77716 5.41935 2.01231L5.85435 3.17231C5.92437 3.35892 5.93704 3.5622 5.89071 3.75606C5.84438 3.94992 5.74118 4.12552 5.59435 4.26031L4.30035 5.44531C4.23648 5.50378 4.1889 5.57784 4.16225 5.66023C4.13561 5.74262 4.13082 5.83051 4.14835 5.91531L4.16035 5.96731L4.19135 6.09731C4.35268 6.72882 4.59786 7.33589 4.92035 7.90231C5.27247 8.50373 5.7089 9.05162 6.21635 9.52931L6.25635 9.56531C6.32095 9.62265 6.3993 9.66228 6.48377 9.68033C6.56824 9.69838 6.65595 9.69424 6.73835 9.66831L8.41135 9.14131C8.60148 9.08161 8.80511 9.08009 8.99612 9.13692C9.18712 9.19376 9.35679 9.30637 9.48335 9.46031L10.2753 10.4213C10.6053 10.8213 10.5653 11.4093 10.1863 11.7623C9.14935 12.7293 7.72335 12.9273 6.73135 12.1303C5.51486 11.15 4.4897 9.95363 3.70735 8.60131C2.91734 7.25077 2.39106 5.76293 2.15435 4.21631ZM5.19635 5.98131L6.26835 4.99731C6.56218 4.72784 6.76878 4.37671 6.86161 3.98898C6.95445 3.60125 6.92928 3.19463 6.78935 2.82131L6.35535 1.66131C6.1773 1.18808 5.82579 0.800369 5.37223 0.57693C4.91866 0.353491 4.39705 0.311078 3.91335 0.458308C2.23035 0.973308 0.879347 2.48231 1.16535 4.36731C1.36535 5.68331 1.82635 7.35731 2.84335 9.10531C3.68746 10.5634 4.79329 11.8533 6.10535 12.9103C7.59335 14.1053 9.57935 13.6973 10.8693 12.4953C11.2385 12.1516 11.4625 11.68 11.4958 11.1768C11.529 10.6736 11.369 10.1766 11.0483 9.78731L10.2563 8.82531C10.003 8.51779 9.66354 8.29296 9.28155 8.17964C8.89955 8.06633 8.49242 8.06969 8.11235 8.18931L6.72335 8.62631C6.36469 8.25657 6.05055 7.8461 5.78735 7.40331C5.53336 6.95553 5.33522 6.4783 5.19735 5.98231" fill="black"/>
<path d="M2.15435 4.21631L1.95661 4.24633L1.95665 4.24657L2.15435 4.21631ZM4.20535 1.41431L4.14723 1.22294L4.14691 1.22304L4.20535 1.41431ZM5.41935 2.01231L5.60661 1.94208L5.60649 1.94175L5.41935 2.01231ZM5.85435 3.17231L5.66708 3.24253L5.6671 3.24257L5.85435 3.17231ZM5.59435 4.26031L5.72942 4.4078L5.7296 4.40764L5.59435 4.26031ZM4.30035 5.44531L4.43541 5.59282L4.43542 5.59281L4.30035 5.44531ZM4.14835 5.91531L3.95244 5.95581L3.95347 5.96028L4.14835 5.91531ZM4.16035 5.96731L3.96546 6.01228L3.9658 6.0137L4.16035 5.96731ZM4.19135 6.09731L3.99678 6.14371L3.99757 6.14681L4.19135 6.09731ZM4.92035 7.90231L4.74653 8.00127L4.74775 8.00336L4.92035 7.90231ZM6.21635 9.52931L6.07923 9.67497L6.08255 9.67797L6.21635 9.52931ZM6.25635 9.56531L6.12255 9.71397L6.12358 9.71489L6.25635 9.56531ZM6.73835 9.66831L6.79838 9.85909L6.79844 9.85907L6.73835 9.66831ZM8.41135 9.14131L8.35144 8.95049L8.35126 8.95055L8.41135 9.14131ZM9.48335 9.46031L9.32886 9.58732L9.32901 9.58751L9.48335 9.46031ZM10.2753 10.4213L10.121 10.5485L10.1211 10.5486L10.2753 10.4213ZM10.1863 11.7623L10.05 11.616L10.0499 11.616L10.1863 11.7623ZM6.73135 12.1303L6.60585 12.286L6.60608 12.2862L6.73135 12.1303ZM3.70735 8.60131L3.88047 8.50115L3.87998 8.50032L3.70735 8.60131ZM6.26835 4.99731L6.13317 4.84991L6.1331 4.84997L6.26835 4.99731ZM6.78935 2.82131L6.60203 2.89139L6.60207 2.89151L6.78935 2.82131ZM6.35535 1.66131L6.54267 1.59122L6.54254 1.59088L6.35535 1.66131ZM3.91335 0.458308L3.85511 0.266975L3.85483 0.267062L3.91335 0.458308ZM1.16535 4.36731L0.96761 4.39731L0.967618 4.39736L1.16535 4.36731ZM2.84335 9.10531L3.01644 9.00511L3.01622 9.00473L2.84335 9.10531ZM6.10535 12.9103L5.97988 13.0661L5.98011 13.0662L6.10535 12.9103ZM10.8693 12.4953L10.7331 12.3489L10.733 12.349L10.8693 12.4953ZM11.0483 9.78731L10.8939 9.91443L10.894 9.91447L11.0483 9.78731ZM10.2563 8.82531L10.4108 8.69819L10.4107 8.69813L10.2563 8.82531ZM8.11235 8.18931L8.17237 8.38009L8.17239 8.38008L8.11235 8.18931ZM6.72335 8.62631L6.57979 8.76556L6.66569 8.85411L6.78337 8.81709L6.72335 8.62631ZM5.78735 7.40331L5.61335 7.502L5.61543 7.5055L5.78735 7.40331ZM2.35208 4.18629C2.18 3.05292 2.97554 1.99918 4.26379 1.60558L4.14691 1.22304C2.72515 1.65743 1.74669 2.8637 1.95661 4.24633L2.35208 4.18629ZM4.26346 1.60568C4.45534 1.54741 4.66221 1.56429 4.8421 1.65291L5.01885 1.29408C4.74787 1.1606 4.43627 1.13516 4.14723 1.22294L4.26346 1.60568ZM4.8421 1.65291C5.02199 1.74152 5.16146 1.89523 5.23221 2.08287L5.60649 1.94175C5.49991 1.6591 5.28983 1.42756 5.01885 1.29408L4.8421 1.65291ZM5.23208 2.08253L5.66708 3.24253L6.04161 3.10208L5.60661 1.94208L5.23208 2.08253ZM5.6671 3.24257C5.72312 3.39186 5.73325 3.55449 5.69619 3.70958L6.08523 3.80255C6.14082 3.56992 6.12563 3.32598 6.0416 3.10204L5.6671 3.24257ZM5.69619 3.70958C5.65912 3.86467 5.57656 4.00514 5.4591 4.11297L5.7296 4.40764C5.9058 4.24589 6.02964 4.03518 6.08523 3.80255L5.69619 3.70958ZM5.45927 4.11281L4.16527 5.29781L4.43542 5.59281L5.72942 4.4078L5.45927 4.11281ZM4.16529 5.2978C4.07588 5.37966 4.00926 5.48334 3.97196 5.59868L4.35255 5.72177C4.36854 5.67234 4.39709 5.6279 4.43541 5.59282L4.16529 5.2978ZM3.97196 5.59868C3.93466 5.71403 3.92795 5.83708 3.95249 5.9558L4.34421 5.87482C4.33369 5.82394 4.33656 5.7712 4.35255 5.72177L3.97196 5.59868ZM3.95347 5.96028L3.96547 6.01228L4.35523 5.92234L4.34323 5.87034L3.95347 5.96028ZM3.9658 6.0137L3.9968 6.1437L4.38589 6.05092L4.35489 5.92092L3.9658 6.0137ZM3.99757 6.14681C4.16332 6.79563 4.41522 7.41932 4.74654 8.00126L5.09415 7.80335C4.78049 7.25245 4.54203 6.66202 4.38512 6.04781L3.99757 6.14681ZM4.74775 8.00336C5.10952 8.62125 5.55791 9.18416 6.07926 9.67494L6.35343 9.38368C5.85989 8.91908 5.43542 8.3862 5.09294 7.80126L4.74775 8.00336ZM6.08255 9.67797L6.12255 9.71397L6.39014 9.41665L6.35014 9.38065L6.08255 9.67797ZM6.12358 9.71489C6.21402 9.79516 6.32372 9.85064 6.44198 9.87591L6.52557 9.48474C6.47489 9.47391 6.42787 9.45014 6.38911 9.41573L6.12358 9.71489ZM6.44198 9.87591C6.56024 9.90118 6.68303 9.89538 6.79838 9.85909L6.67831 9.47753C6.62888 9.49309 6.57625 9.49557 6.52557 9.48474L6.44198 9.87591ZM6.79844 9.85907L8.47144 9.33207L8.35126 8.95055L6.67826 9.47755L6.79844 9.85907ZM8.47126 9.33212C8.62336 9.28437 8.78627 9.28315 8.93907 9.32862L9.05316 8.94523C8.82395 8.87703 8.57959 8.87886 8.35144 8.95049L8.47126 9.33212ZM8.93907 9.32862C9.09188 9.37409 9.22761 9.46418 9.32886 9.58732L9.63784 9.33329C9.48596 9.14857 9.28236 9.01344 9.05316 8.94523L8.93907 9.32862ZM9.32901 9.58751L10.121 10.5485L10.4297 10.2941L9.63769 9.33311L9.32901 9.58751ZM10.1211 10.5486C10.3835 10.8666 10.3519 11.3348 10.05 11.616L10.3227 11.9087C10.7787 11.4839 10.8272 10.776 10.4296 10.294L10.1211 10.5486ZM10.0499 11.616C9.06447 12.535 7.7505 12.6926 6.85661 11.9744L6.60608 12.2862C7.69619 13.162 9.23422 12.9236 10.3227 11.9086L10.0499 11.616ZM6.85684 11.9746C5.65952 11.0097 4.6505 9.83218 3.88046 8.50115L3.53423 8.70146C4.32891 10.0751 5.37021 11.2903 6.60585 12.286L6.85684 11.9746ZM3.87998 8.50032C3.10275 7.17164 2.58495 5.7078 2.35205 4.18605L1.95665 4.24657C2.19717 5.81805 2.73192 7.3299 3.53471 8.70229L3.87998 8.50032ZM5.33159 6.12865L6.40359 5.14465L6.1331 4.84997L5.0611 5.83397L5.33159 6.12865ZM6.40352 5.14471C6.72674 4.8483 6.954 4.46205 7.05612 4.03555L6.66711 3.94241C6.58356 4.29137 6.39762 4.60739 6.13317 4.84991L6.40352 5.14471ZM7.05612 4.03555C7.15823 3.60905 7.13055 3.16176 6.97662 2.75111L6.60207 2.89151C6.72801 3.2275 6.75066 3.59346 6.66711 3.94241L7.05612 4.03555ZM6.97667 2.75122L6.54267 1.59122L6.16803 1.73139L6.60203 2.89139L6.97667 2.75122ZM6.54254 1.59088C6.34659 1.07009 5.95976 0.643414 5.46061 0.397519L5.28384 0.756341C5.69182 0.957324 6.008 1.30607 6.16816 1.73174L6.54254 1.59088ZM5.46061 0.397519C4.96146 0.151623 4.38743 0.104948 3.85511 0.266975L3.97159 0.649641C4.40668 0.517208 4.87586 0.555358 5.28384 0.756341L5.46061 0.397519ZM3.85483 0.267062C2.10737 0.801784 0.662416 2.3858 0.96761 4.39731L1.36308 4.33731C1.09628 2.57882 2.35332 1.14483 3.97187 0.649554L3.85483 0.267062ZM0.967618 4.39736C1.17068 5.73349 1.63863 7.43236 2.67048 9.20589L3.01622 9.00473C2.01407 7.28226 1.56002 5.63313 1.36308 4.33726L0.967618 4.39736ZM2.67026 9.20551C3.52669 10.6849 4.64867 11.9937 5.97988 13.0661L6.23082 12.7546C4.93792 11.713 3.84823 10.4419 3.01644 9.00511L2.67026 9.20551ZM5.98011 13.0662C7.56768 14.3412 9.66586 13.8901 11.0057 12.6416L10.733 12.349C9.49284 13.5046 7.61901 13.8694 6.23058 12.7544L5.98011 13.0662ZM11.0056 12.6417C11.412 12.2633 11.6587 11.7441 11.6953 11.19L11.2962 11.1636C11.2663 11.616 11.0649 12.04 10.7331 12.3489L11.0056 12.6417ZM11.6953 11.19C11.732 10.6359 11.5558 10.0887 11.2027 9.66015L10.894 9.91447C11.1823 10.2644 11.3261 10.7112 11.2962 11.1636L11.6953 11.19ZM11.2028 9.66019L10.4108 8.69819L10.1019 8.95243L10.8939 9.91443L11.2028 9.66019ZM10.4107 8.69813C10.132 8.35986 9.75862 8.11255 9.33843 7.9879L9.22467 8.37138C9.56847 8.47337 9.87396 8.67572 10.102 8.95248L10.4107 8.69813ZM9.33843 7.9879C8.91823 7.86325 8.47038 7.86695 8.05231 7.99853L8.17239 8.38008C8.51445 8.27243 8.88087 8.2694 9.22467 8.37138L9.33843 7.9879ZM8.05232 7.99853L6.66332 8.43553L6.78337 8.81709L8.17237 8.38009L8.05232 7.99853ZM6.8669 8.48706C6.51912 8.12852 6.2145 7.73049 5.95927 7.30112L5.61543 7.5055C5.88661 7.96171 6.21026 8.38461 6.57979 8.76556L6.8669 8.48706ZM5.96131 7.30463C5.71539 6.87107 5.52353 6.40899 5.39004 5.92875L5.00465 6.03587C5.1469 6.54761 5.35133 7.03998 5.61338 7.50198L5.96131 7.30463Z" fill="black" mask="url(#path-1-outside-1_490_3159)"/>
</svg>
