<svg width="20" height="20" viewBox="0 0 20 20" fill="none" xmlns="http://www.w3.org/2000/svg">
<path d="M3.39923 3.87967L3.77423 3.22967C3.627 3.14474 3.45529 3.11233 3.28723 3.13777C3.11917 3.1632 2.96474 3.24497 2.84923 3.36967L3.39923 3.87967ZM1.40023 7.34367L0.683233 7.12167C0.633075 7.28412 0.639601 7.45879 0.70174 7.61705C0.763879 7.7753 0.877944 7.90775 1.02523 7.99267L1.40023 7.34367ZM1.39823 12.6547L1.02323 12.0047C0.875913 12.0898 0.761912 12.2225 0.699946 12.3809C0.637981 12.5394 0.631735 12.7142 0.682233 12.8767L1.39823 12.6547ZM3.39823 16.1187L2.84823 16.6287C2.96374 16.7534 3.11817 16.8351 3.28623 16.8606C3.45429 16.886 3.626 16.8536 3.77323 16.7687L3.39823 16.1187ZM7.99823 18.7737H7.24823C7.24823 19.1237 7.49123 19.4267 7.83223 19.5047L7.99823 18.7737ZM11.9992 18.7757L12.1662 19.5077C12.332 19.4698 12.48 19.3767 12.5859 19.2437C12.6918 19.1107 12.7494 18.9457 12.7492 18.7757H11.9992ZM16.6002 16.1197L16.2252 16.7697C16.3725 16.8546 16.5442 16.887 16.7122 16.8616C16.8803 16.8361 17.0347 16.7544 17.1502 16.6297L16.6002 16.1197ZM18.5982 12.6537L19.3152 12.8757C19.3654 12.7132 19.3589 12.5385 19.2967 12.3803C19.2346 12.222 19.1205 12.0896 18.9732 12.0047L18.5982 12.6537ZM18.6002 7.34267L18.9752 7.99267C19.1226 7.90755 19.2366 7.77487 19.2985 7.61642C19.3605 7.45796 19.3667 7.28315 19.3162 7.12067L18.6002 7.34267ZM16.6002 3.87767L17.1502 3.36867C17.0347 3.24397 16.8803 3.1622 16.7122 3.13677C16.5442 3.11133 16.3725 3.14374 16.2252 3.22867L16.6002 3.87767ZM12.0002 1.22467H12.7502C12.7502 1.05481 12.6925 0.889998 12.5866 0.757201C12.4807 0.624405 12.3328 0.531492 12.1672 0.493671L12.0002 1.22467ZM8.00023 1.22267L7.83323 0.490671C7.66747 0.52853 7.51949 0.621591 7.41357 0.754592C7.30764 0.887593 7.25004 1.05264 7.25023 1.22267H8.00023ZM2.11723 7.56567C2.4812 6.38259 3.10702 5.2967 3.94823 4.38867L2.84823 3.36867C1.85418 4.44164 1.11454 5.72472 0.684233 7.12267L2.11723 7.56567ZM2.85523 14.1247C2.54653 13.5906 2.29833 13.0238 2.11523 12.4347L0.683233 12.8777C0.899077 13.5737 1.19189 14.2435 1.55623 14.8747L2.85523 14.1247ZM3.94923 15.6107C3.53047 15.1575 3.16353 14.6591 2.85523 14.1247L1.55623 14.8747C1.92031 15.5059 2.35366 16.0935 2.84823 16.6287L3.94923 15.6107ZM11.8332 18.0457C10.6266 18.3203 9.37358 18.3196 8.16723 18.0437L7.83323 19.5057C9.25934 19.8322 10.7407 19.8332 12.1672 19.5087L11.8332 18.0457ZM17.8832 12.4337C17.5193 13.6168 16.8934 14.7026 16.0522 15.6107L17.1522 16.6307C18.1463 15.5577 18.8859 14.2746 19.3162 12.8767L17.8832 12.4337ZM17.1452 5.87467C17.4592 6.42334 17.7059 6.98667 17.8852 7.56467L19.3172 7.12167C19.1014 6.42561 18.8086 5.75581 18.4442 5.12467L17.1452 5.87467ZM16.0502 4.38867C16.4602 4.83167 16.8282 5.32867 17.1442 5.87467L18.4442 5.12467C18.0798 4.49341 17.6452 3.90377 17.1502 3.36867L16.0502 4.38867ZM8.16623 1.95367C9.37288 1.67904 10.6259 1.67973 11.8322 1.95567L12.1672 0.493671C10.7411 0.167188 9.25879 0.166163 7.83223 0.490671L8.16623 1.95367ZM8.74923 3.07167V1.22167H7.24923V3.07167H8.74923ZM5.37523 4.15367L3.77423 3.22967L3.02423 4.52867L4.62423 5.45267L5.37523 4.15367ZM2.62523 11.0827L1.02423 12.0067L1.77423 13.3057L3.37523 12.3817L2.62523 11.0827ZM3.37523 7.61767L1.77523 6.69467L1.02523 7.99467L2.62523 8.91767L3.37523 7.61767ZM8.75023 18.7747V16.9277H7.25023V18.7747H8.75023ZM4.62523 14.5467L3.02423 15.4707L3.77423 16.7707L5.37423 15.8457L4.62523 14.5467ZM16.9762 15.4707L15.3752 14.5467L14.6252 15.8457L16.2252 16.7697L16.9762 15.4707ZM12.7502 18.7767V16.9277H11.2502V18.7777L12.7502 18.7767ZM18.2262 6.69367L16.6252 7.61767L17.3752 8.91767L18.9752 7.99267L18.2262 6.69367ZM18.9742 12.0057L17.3752 11.0817L16.6252 12.3817L18.2252 13.3047L18.9742 12.0057ZM12.7502 3.07167V1.22467H11.2502V3.07167H12.7502ZM16.2262 3.22967L14.6252 4.15367L15.3752 5.45367L16.9762 4.52867L16.2262 3.22967ZM11.2502 3.07167C11.2502 5.18867 13.5422 6.51267 15.3752 5.45367L14.6252 4.15367C14.4352 4.26336 14.2197 4.32112 14.0004 4.32114C13.781 4.32116 13.5655 4.26345 13.3755 4.1538C13.1855 4.04416 13.0276 3.88643 12.9179 3.69648C12.8082 3.50653 12.7503 3.29105 12.7502 3.07167H11.2502ZM16.6252 7.61767C14.7922 8.67667 14.7922 11.3227 16.6252 12.3817L17.3752 11.0817C17.1852 10.972 17.0274 10.8142 16.9177 10.6241C16.808 10.4341 16.7503 10.2186 16.7503 9.99917C16.7503 9.77976 16.808 9.56422 16.9177 9.3742C17.0274 9.18418 17.1852 9.02639 17.3752 8.91667L16.6252 7.61767ZM15.3752 14.5467C13.5422 13.4877 11.2502 14.8107 11.2502 16.9277H12.7502C12.7503 16.7083 12.8082 16.4928 12.9179 16.3029C13.0276 16.1129 13.1855 15.9552 13.3755 15.8455C13.5655 15.7359 13.781 15.6782 14.0004 15.6782C14.2197 15.6782 14.4352 15.736 14.6252 15.8457L15.3752 14.5467ZM8.75023 16.9277C8.75023 14.8107 6.45823 13.4877 4.62523 14.5467L5.37423 15.8457C5.56422 15.736 5.78072 15.6782 6.0001 15.6782C6.21948 15.6782 6.43499 15.7359 6.625 15.8455C6.81501 15.9552 6.97282 16.1129 7.08257 16.3029C7.19231 16.4928 7.25014 16.7083 7.25023 16.9277H8.75023ZM3.37523 12.3817C5.20823 11.3227 5.20823 8.67667 3.37523 7.61767L2.62523 8.91767C2.81524 9.02739 2.97303 9.18518 3.08273 9.3752C3.19243 9.56522 3.25018 9.78076 3.25018 10.0002C3.25018 10.2196 3.19243 10.4351 3.08273 10.6251C2.97303 10.8152 2.81524 10.973 2.62523 11.0827L3.37523 12.3817ZM7.25023 3.07167C7.25014 3.29105 7.19231 3.50653 7.08257 3.69648C6.97282 3.88643 6.81501 4.04416 6.625 4.1538C6.43499 4.26345 6.21948 4.32116 6.0001 4.32114C5.78072 4.32112 5.56522 4.26336 5.37523 4.15367L4.62523 5.45367C6.45823 6.51167 8.75023 5.18867 8.75023 3.07167H7.25023Z" fill="black"/>
</svg>
