<svg width="24" height="20" viewBox="0 0 24 20" fill="none" xmlns="http://www.w3.org/2000/svg">
<path d="M5.234 5.73C5.95509 4.58755 6.95376 3.64631 8.13687 2.99408C9.31999 2.34185 10.649 1.99985 12 2C13.3512 1.99969 14.6804 2.3416 15.8637 2.99384C17.047 3.64608 18.0458 4.5874 18.767 5.73L20.457 4.66C19.5554 3.23247 18.307 2.05647 16.8282 1.24163C15.3494 0.426785 13.6884 -0.000363637 12 2.32278e-07C10.3118 -0.000194793 8.65093 0.427034 7.17234 1.24187C5.69375 2.0567 4.44552 3.23261 3.544 4.66L5.234 5.73ZM12 18C10.649 18.0001 9.31999 17.6582 8.13687 17.0059C6.95376 16.3537 5.95509 15.4125 5.234 14.27L3.544 15.34C4.44552 16.7674 5.69375 17.9433 7.17234 18.7581C8.65093 19.573 10.3118 20.0002 12 20C13.6884 20.0004 15.3494 19.5732 16.8282 18.7584C18.307 17.9435 19.5554 16.7675 20.457 15.34L18.767 14.27C18.0458 15.4126 17.047 16.3539 15.8637 17.0062C14.6804 17.6584 13.3512 18.0003 12 18ZM12 6C12.2652 6 12.5196 6.10536 12.7071 6.29289C12.8946 6.48043 13 6.73478 13 7C13 7.26522 12.8946 7.51957 12.7071 7.70711C12.5196 7.89464 12.2652 8 12 8C11.7348 8 11.4804 7.89464 11.2929 7.70711C11.1054 7.51957 11 7.26522 11 7C11 6.73478 11.1054 6.48043 11.2929 6.29289C11.4804 6.10536 11.7348 6 12 6ZM12 10C12.7956 10 13.5587 9.68393 14.1213 9.12132C14.6839 8.55871 15 7.79565 15 7C15 6.20435 14.6839 5.44129 14.1213 4.87868C13.5587 4.31607 12.7956 4 12 4C11.2044 4 10.4413 4.31607 9.87868 4.87868C9.31607 5.44129 9 6.20435 9 7C9 7.79565 9.31607 8.55871 9.87868 9.12132C10.4413 9.68393 11.2044 10 12 10ZM12 13C11.4696 13 10.9609 13.2107 10.5858 13.5858C10.2107 13.9609 10 14.4696 10 15H8C8 13.9391 8.42143 12.9217 9.17157 12.1716C9.92172 11.4214 10.9391 11 12 11C13.0609 11 14.0783 11.4214 14.8284 12.1716C15.5786 12.9217 16 13.9391 16 15H14C14 14.4696 13.7893 13.9609 13.4142 13.5858C13.0391 13.2107 12.5304 13 12 13ZM3 9C2.73478 9 2.48043 9.10536 2.29289 9.29289C2.10536 9.48043 2 9.73478 2 10C2 10.2652 2.10536 10.5196 2.29289 10.7071C2.48043 10.8946 2.73478 11 3 11C3.26522 11 3.51957 10.8946 3.70711 10.7071C3.89464 10.5196 4 10.2652 4 10C4 9.73478 3.89464 9.48043 3.70711 9.29289C3.51957 9.10536 3.26522 9 3 9ZM0 10C0 9.20435 0.31607 8.44129 0.87868 7.87868C1.44129 7.31607 2.20435 7 3 7C3.79565 7 4.55871 7.31607 5.12132 7.87868C5.68393 8.44129 6 9.20435 6 10C6 10.7956 5.68393 11.5587 5.12132 12.1213C4.55871 12.6839 3.79565 13 3 13C2.20435 13 1.44129 12.6839 0.87868 12.1213C0.31607 11.5587 0 10.7956 0 10ZM20 10C20 9.73478 20.1054 9.48043 20.2929 9.29289C20.4804 9.10536 20.7348 9 21 9C21.2652 9 21.5196 9.10536 21.7071 9.29289C21.8946 9.48043 22 9.73478 22 10C22 10.2652 21.8946 10.5196 21.7071 10.7071C21.5196 10.8946 21.2652 11 21 11C20.7348 11 20.4804 10.8946 20.2929 10.7071C20.1054 10.5196 20 10.2652 20 10ZM21 7C20.2044 7 19.4413 7.31607 18.8787 7.87868C18.3161 8.44129 18 9.20435 18 10C18 10.7956 18.3161 11.5587 18.8787 12.1213C19.4413 12.6839 20.2044 13 21 13C21.7956 13 22.5587 12.6839 23.1213 12.1213C23.6839 11.5587 24 10.7956 24 10C24 9.20435 23.6839 8.44129 23.1213 7.87868C22.5587 7.31607 21.7956 7 21 7Z" fill="black"/>
</svg>
