<svg width="12" height="12" viewBox="0 0 12 12" fill="none" xmlns="http://www.w3.org/2000/svg">
<g clip-path="url(#clip0_564_2918)">
<path d="M7.77594 5.39757C8.28969 5.39757 8.70617 4.9811 8.70617 4.46734C8.70617 3.95359 8.28969 3.53711 7.77594 3.53711C7.26218 3.53711 6.8457 3.95359 6.8457 4.46734C6.8457 4.9811 7.26218 5.39757 7.77594 5.39757Z" stroke="black" stroke-width="0.697674"/>
<path d="M1.26465 6.55945L2.07953 5.84643C2.28378 5.66786 2.54825 5.57356 2.8194 5.58263C3.09055 5.5917 3.34813 5.70345 3.54 5.89527L5.53535 7.89062C5.69019 8.04542 5.89467 8.14065 6.11281 8.15954C6.33095 8.17843 6.54876 8.11976 6.7279 7.99387L6.86697 7.8962C7.12539 7.7147 7.43773 7.62623 7.75294 7.64524C8.06815 7.66425 8.36759 7.78961 8.60232 8.00085L10.1019 9.35015" stroke="black" stroke-width="0.697674" stroke-linecap="round"/>
<path d="M10.567 6.32694C10.567 8.5195 10.567 9.61578 9.88558 10.2967C9.20511 10.9781 8.10837 10.9781 5.91581 10.9781C3.72325 10.9781 2.62697 10.9781 1.94558 10.2967C1.26465 9.61625 1.26465 8.5195 1.26465 6.32694C1.26465 4.13439 1.26465 3.03811 1.94558 2.35671C2.62744 1.67578 3.72325 1.67578 5.91581 1.67578C8.10837 1.67578 9.20465 1.67578 9.88558 2.35671C10.3386 2.80973 10.4902 3.44648 10.5414 4.46648" stroke="black" stroke-width="0.697674" stroke-linecap="round"/>
</g>
<defs>
<clipPath id="clip0_564_2918">
<rect width="11.1628" height="11.1628" fill="white" transform="translate(0.334961 0.744141)"/>
</clipPath>
</defs>
</svg>

