<svg width="18" height="18" viewBox="0 0 18 18" fill="none" xmlns="http://www.w3.org/2000/svg">
<rect x="0.930664" y="0.464844" width="16.7442" height="16.7442" rx="8.37209" fill="black" fill-opacity="0.7"/>
<path d="M10.3891 7.10102C10.5077 7.22579 10.597 7.37785 10.6497 7.54511L10.8202 8.09404C10.8343 8.13654 10.8606 8.17339 10.8956 8.19946C10.9306 8.22554 10.9725 8.23955 11.0154 8.23955C11.0583 8.23955 11.1002 8.22554 11.1352 8.19946C11.1702 8.17339 11.1965 8.13654 11.2106 8.09404L11.3811 7.54511C11.4342 7.3783 11.5237 7.22676 11.6425 7.10248C11.7612 6.97821 11.906 6.88462 12.0653 6.82914L12.5897 6.65055C12.6299 6.63554 12.6648 6.60784 12.6894 6.57126C12.714 6.53468 12.7272 6.49101 12.7272 6.44625C12.7272 6.40148 12.714 6.35781 12.6894 6.32123C12.6648 6.28465 12.6299 6.25695 12.5897 6.24194L12.579 6.23915L12.0546 6.06056C11.8953 6.00508 11.7506 5.9115 11.6318 5.78722C11.5131 5.66295 11.4236 5.5114 11.3704 5.34459L11.2007 4.79566C11.1865 4.75321 11.1601 4.71642 11.1251 4.6904C11.0901 4.66437 11.0482 4.65039 11.0053 4.65039C10.9624 4.65039 10.9205 4.66437 10.8855 4.6904C10.8505 4.71642 10.8241 4.75321 10.8099 4.79566L10.6394 5.34459L10.6353 5.35815C10.5819 5.5208 10.4939 5.66858 10.378 5.79029C10.262 5.91199 10.1211 6.00442 9.9659 6.06056L9.44153 6.23915C9.40127 6.25416 9.36644 6.28186 9.3418 6.31844C9.31717 6.35502 9.30394 6.39869 9.30394 6.44346C9.30394 6.48822 9.31717 6.53189 9.3418 6.56847C9.36644 6.60505 9.40127 6.63275 9.44153 6.64776L9.9659 6.82635C10.1257 6.88216 10.2699 6.97624 10.3891 7.10102ZM13.1152 8.62344L13.4067 8.72231L13.4124 8.7239C13.4291 8.73011 13.4443 8.7403 13.4567 8.75368C13.4691 8.76707 13.4784 8.78327 13.4838 8.80103C13.4892 8.8188 13.4906 8.83763 13.488 8.85606C13.4853 8.87449 13.4785 8.89202 13.4683 8.90728C13.4545 8.92766 13.4349 8.94299 13.4124 8.95113L13.1213 9.04999C13.0327 9.08086 12.9522 9.13293 12.8861 9.20205C12.8201 9.27117 12.7703 9.35546 12.7407 9.44824L12.6464 9.7528C12.6385 9.77635 12.6238 9.79675 12.6044 9.81118C12.585 9.82562 12.5617 9.83337 12.5379 9.83337C12.5141 9.83337 12.4909 9.82562 12.4714 9.81118C12.452 9.79675 12.4373 9.77635 12.4295 9.7528L12.3347 9.44824C12.3053 9.35529 12.2557 9.27078 12.1897 9.20145C12.1237 9.13211 12.0432 9.07984 11.9546 9.0488L11.6634 8.94953C11.6467 8.94333 11.6315 8.93313 11.6191 8.91975C11.6067 8.90637 11.5974 8.89016 11.592 8.8724C11.5866 8.85464 11.5852 8.8358 11.5879 8.81737C11.5905 8.79894 11.5973 8.78141 11.6075 8.76616C11.6213 8.74578 11.6409 8.73044 11.6634 8.72231L11.9546 8.62344C12.042 8.59173 12.1213 8.5393 12.1863 8.47022C12.2512 8.40114 12.3 8.31729 12.329 8.2252L12.4237 7.92063C12.4316 7.89709 12.4463 7.87668 12.4657 7.86225C12.4851 7.84782 12.5084 7.84006 12.5322 7.84006C12.556 7.84006 12.5792 7.84782 12.5987 7.86225C12.6181 7.87668 12.6328 7.89709 12.6406 7.92063L12.7354 8.2252C12.7649 8.31793 12.8146 8.40219 12.8806 8.47131C12.9466 8.54043 13.0266 8.59252 13.1152 8.62344ZM8.20785 6.24672H8.95331C8.982 6.15835 9.02943 6.07793 9.09205 6.01151C9.15466 5.94509 9.23082 5.89439 9.31481 5.86323L9.84413 5.68264L9.86316 5.67587C9.79506 5.65812 9.72518 5.64902 9.65501 5.64876H8.20785C8.0615 5.6488 7.9176 5.68814 7.78989 5.76302C7.66219 5.83791 7.55493 5.94584 7.47838 6.0765L7.14541 6.64417H6.35391C6.02591 6.64417 5.71135 6.78067 5.47942 7.02364C5.24748 7.26662 5.11719 7.59615 5.11719 7.93977V11.7269C5.11719 12.0705 5.24748 12.4 5.47942 12.643C5.71135 12.886 6.02591 13.0225 6.35391 13.0225H11.4911C11.6535 13.0225 11.8143 12.989 11.9643 12.9239C12.1144 12.8588 12.2507 12.7633 12.3656 12.643C12.4804 12.5227 12.5715 12.3799 12.6336 12.2227C12.6958 12.0655 12.7278 11.897 12.7278 11.7269V10.1913C12.5733 10.2567 12.3891 10.2384 12.2514 10.1367C12.2163 10.1107 12.1845 10.08 12.157 10.0454V11.7269C12.157 11.9119 12.0868 12.0894 11.9619 12.2202C11.8371 12.351 11.6677 12.4245 11.4911 12.4245H6.35391C6.1773 12.4245 6.00791 12.351 5.88303 12.2202C5.75814 12.0894 5.68798 11.9119 5.68798 11.7269V7.93977C5.68798 7.55468 5.98632 7.24214 6.35391 7.24214H7.30523C7.3541 7.24218 7.40215 7.22908 7.44479 7.20409C7.48743 7.1791 7.52324 7.14306 7.54877 7.09943L7.96469 6.38944L7.98943 6.35356C8.01619 6.32014 8.04961 6.29325 8.08734 6.2748C8.12508 6.25634 8.16621 6.24676 8.20785 6.24672ZM10.6349 9.63401C10.6349 9.15823 10.4545 8.70195 10.1333 8.36553C9.81219 8.02911 9.37664 7.84011 8.92249 7.84011C8.46833 7.84011 8.03278 8.02911 7.71165 8.36553C7.39051 8.70195 7.2101 9.15823 7.2101 9.63401C7.2101 10.1098 7.39051 10.5661 7.71165 10.9025C8.03278 11.2389 8.46833 11.4279 8.92249 11.4279C9.37664 11.4279 9.81219 11.2389 10.1333 10.9025C10.4545 10.5661 10.6349 10.1098 10.6349 9.63401ZM7.7809 9.63401C7.7809 9.31682 7.90117 9.01263 8.11526 8.78835C8.32935 8.56407 8.61972 8.43807 8.92249 8.43807C9.22526 8.43807 9.51562 8.56407 9.72971 8.78835C9.9438 9.01263 10.0641 9.31682 10.0641 9.63401C10.0641 9.95119 9.9438 10.2554 9.72971 10.4797C9.51562 10.7039 9.22526 10.8299 8.92249 10.8299C8.61972 10.8299 8.32935 10.7039 8.11526 10.4797C7.90117 10.2554 7.7809 9.95119 7.7809 9.63401Z" fill="white"/>
</svg>