<svg width="24" height="24" viewBox="0 0 24 24" fill="none" xmlns="http://www.w3.org/2000/svg">
<path d="M4 22C3.71667 22 3.47933 21.904 3.288 21.712C3.09667 21.52 3.00067 21.2827 3 21V16C3 15.45 3.196 14.9793 3.588 14.588C3.98 14.1967 4.45067 14.0007 5 14V10C5 9.45 5.196 8.97933 5.588 8.588C5.98 8.19667 6.45067 8.00067 7 8H11V6.55C10.7 6.35 10.4583 6.10833 10.275 5.825C10.0917 5.54167 10 5.2 10 4.8C10 4.55 10.05 4.304 10.15 4.062C10.25 3.82 10.4 3.59933 10.6 3.4L12 2L13.4 3.4C13.6 3.6 13.75 3.82067 13.85 4.062C13.95 4.30333 14 4.54933 14 4.8C14 5.2 13.9083 5.54167 13.725 5.825C13.5417 6.10833 13.3 6.35 13 6.55V8H17C17.55 8 18.021 8.19567 18.413 8.587C18.805 8.97833 19.0007 9.44933 19 10V14C19.55 14 20.021 14.196 20.413 14.588C20.805 14.98 21.0007 15.4507 21 16V21C21 21.2833 20.904 21.521 20.712 21.713C20.52 21.905 20.2827 22.0007 20 22H4ZM7 14H17V10H7V14ZM5 20H19V16H5V20Z" fill="black"/>
</svg>
