<svg width="296" height="40" viewBox="0 0 296 40" fill="none" xmlns="http://www.w3.org/2000/svg">
<path d="M16.75 13.25C14.275 13.25 12.25 15.275 12.25 17.75C12.25 19.238 12.9827 20.5625 14.1017 21.383C12.124 22.364 10.75 24.398 10.75 26.75H12.25C12.25 24.257 14.257 22.25 16.75 22.25C19.243 22.25 21.25 24.257 21.25 26.75H22.75C22.75 24.257 24.757 22.25 27.25 22.25C29.743 22.25 31.75 24.257 31.75 26.75H33.25C33.25 24.3973 31.876 22.364 29.8983 21.383C30.4711 20.966 30.9375 20.4196 31.2592 19.7883C31.581 19.157 31.7492 18.4586 31.75 17.75C31.75 15.275 29.725 13.25 27.25 13.25C24.775 13.25 22.75 15.275 22.75 17.75C22.75 19.238 23.4827 20.5625 24.6017 21.383C23.5059 21.9216 22.5988 22.7795 22 23.8438C21.4012 22.7795 20.4941 21.9216 19.3983 21.383C19.9711 20.966 20.4375 20.4196 20.7592 19.7883C21.081 19.157 21.2492 18.4586 21.25 17.75C21.25 15.275 19.225 13.25 16.75 13.25ZM16.75 14.75C18.4173 14.75 19.75 16.0827 19.75 17.75C19.75 19.4173 18.4173 20.75 16.75 20.75C15.0827 20.75 13.75 19.4173 13.75 17.75C13.75 16.0827 15.0827 14.75 16.75 14.75ZM27.25 14.75C28.9172 14.75 30.25 16.0827 30.25 17.75C30.25 19.4173 28.9172 20.75 27.25 20.75C25.5828 20.75 24.25 19.4173 24.25 17.75C24.25 16.0827 25.5828 14.75 27.25 14.75Z" fill="black"/>
<path d="M46.12 26.5V11.9H48.08V26.5H46.12ZM47.68 26.5V24.74H54.36V26.5H47.68ZM57.2389 26.5V15.82H59.1589V26.5H57.2389ZM55.5989 17.34V15.82H59.1589V17.34H55.5989ZM57.7789 14.1C57.3522 14.1 57.0322 13.9867 56.8189 13.76C56.6189 13.5333 56.5189 13.2467 56.5189 12.9C56.5189 12.5533 56.6189 12.2667 56.8189 12.04C57.0322 11.8133 57.3522 11.7 57.7789 11.7C58.2056 11.7 58.5189 11.8133 58.7189 12.04C58.9322 12.2667 59.0389 12.5533 59.0389 12.9C59.0389 13.2467 58.9322 13.5333 58.7189 13.76C58.5189 13.9867 58.2056 14.1 57.7789 14.1ZM66.3713 26.82C64.9713 26.82 63.8846 26.52 63.1113 25.92C62.3513 25.32 61.9579 24.5 61.9313 23.46H63.7313C63.7579 23.8733 63.9646 24.2667 64.3513 24.64C64.7513 25 65.4246 25.18 66.3713 25.18C67.2246 25.18 67.8779 25.0133 68.3313 24.68C68.7846 24.3333 69.0113 23.9133 69.0113 23.42C69.0113 22.98 68.8446 22.64 68.5113 22.4C68.1779 22.1467 67.6379 21.98 66.8913 21.9L65.7313 21.78C64.7179 21.6733 63.8913 21.3733 63.2513 20.88C62.6113 20.3733 62.2913 19.6667 62.2913 18.76C62.2913 18.08 62.4646 17.5 62.8113 17.02C63.1579 16.5267 63.6379 16.1533 64.2513 15.9C64.8646 15.6333 65.5713 15.5 66.3713 15.5C67.5713 15.5 68.5446 15.7667 69.2913 16.3C70.0379 16.8333 70.4246 17.6267 70.4513 18.68H68.6513C68.6379 18.2533 68.4379 17.8933 68.0513 17.6C67.6779 17.2933 67.1179 17.14 66.3713 17.14C65.6246 17.14 65.0579 17.2933 64.6713 17.6C64.2846 17.9067 64.0913 18.2933 64.0913 18.76C64.0913 19.16 64.2246 19.48 64.4913 19.72C64.7713 19.96 65.2246 20.1133 65.8513 20.18L67.0113 20.3C68.1579 20.42 69.0779 20.74 69.7713 21.26C70.4646 21.7667 70.8113 22.4867 70.8113 23.42C70.8113 24.0867 70.6179 24.68 70.2313 25.2C69.8579 25.7067 69.3379 26.1067 68.6713 26.4C68.0046 26.68 67.2379 26.82 66.3713 26.82ZM77.7539 26.62C76.9539 26.62 76.2606 26.5067 75.6739 26.28C75.1006 26.0533 74.6539 25.6667 74.3339 25.12C74.0272 24.56 73.8739 23.8067 73.8739 22.86V12.58H75.7139V23.1C75.7139 23.6733 75.8672 24.12 76.1739 24.44C76.4939 24.7467 76.9406 24.9 77.5139 24.9H79.3939V26.62H77.7539ZM72.0339 17.26V15.82H79.3939V17.26H72.0339ZM91.5803 26.86C90.647 26.86 89.827 26.7 89.1203 26.38C88.4136 26.06 87.8136 25.64 87.3203 25.12C86.8403 24.5867 86.4736 23.9933 86.2203 23.34C85.9803 22.6867 85.8603 22.02 85.8603 21.34V20.98C85.8603 20.3 85.987 19.6333 86.2403 18.98C86.4936 18.3133 86.867 17.72 87.3603 17.2C87.8536 16.6667 88.4536 16.2467 89.1603 15.94C89.867 15.62 90.6736 15.46 91.5803 15.46C92.487 15.46 93.2936 15.62 94.0003 15.94C94.707 16.2467 95.307 16.6667 95.8003 17.2C96.2936 17.72 96.667 18.3133 96.9203 18.98C97.1736 19.6333 97.3003 20.3 97.3003 20.98V21.34C97.3003 22.02 97.1736 22.6867 96.9203 23.34C96.6803 23.9933 96.3136 24.5867 95.8203 25.12C95.3403 25.64 94.747 26.06 94.0403 26.38C93.3336 26.7 92.5136 26.86 91.5803 26.86ZM91.5803 25.14C92.3803 25.14 93.0603 24.9667 93.6203 24.62C94.1936 24.26 94.627 23.78 94.9203 23.18C95.227 22.58 95.3803 21.9067 95.3803 21.16C95.3803 20.4 95.227 19.72 94.9203 19.12C94.6136 18.52 94.1736 18.0467 93.6003 17.7C93.0403 17.3533 92.367 17.18 91.5803 17.18C90.807 17.18 90.1336 17.3533 89.5603 17.7C88.987 18.0467 88.547 18.52 88.2403 19.12C87.9336 19.72 87.7803 20.4 87.7803 21.16C87.7803 21.9067 87.927 22.58 88.2203 23.18C88.527 23.78 88.9603 24.26 89.5203 24.62C90.0936 24.9667 90.7803 25.14 91.5803 25.14ZM100.456 26.5V15.28C100.456 14.0933 100.769 13.22 101.396 12.66C102.023 12.1 102.943 11.82 104.156 11.82H105.476V13.42H103.836C103.343 13.42 102.963 13.56 102.696 13.84C102.429 14.1067 102.296 14.48 102.296 14.96V26.5H100.456ZM98.9759 17.38V15.94H105.676V17.38H98.9759ZM112.585 26.5V11.9H114.545V26.5H112.585ZM114.145 20V18.24L120.405 18.22V19.98L114.145 20ZM114.145 13.66V11.9H120.745V13.66H114.145ZM128.221 26.86C127.288 26.86 126.468 26.7 125.761 26.38C125.054 26.06 124.454 25.64 123.961 25.12C123.481 24.5867 123.114 23.9933 122.861 23.34C122.621 22.6867 122.501 22.02 122.501 21.34V20.98C122.501 20.3 122.628 19.6333 122.881 18.98C123.134 18.3133 123.508 17.72 124.001 17.2C124.494 16.6667 125.094 16.2467 125.801 15.94C126.508 15.62 127.314 15.46 128.221 15.46C129.128 15.46 129.934 15.62 130.641 15.94C131.348 16.2467 131.948 16.6667 132.441 17.2C132.934 17.72 133.308 18.3133 133.561 18.98C133.814 19.6333 133.941 20.3 133.941 20.98V21.34C133.941 22.02 133.814 22.6867 133.561 23.34C133.321 23.9933 132.954 24.5867 132.461 25.12C131.981 25.64 131.388 26.06 130.681 26.38C129.974 26.7 129.154 26.86 128.221 26.86ZM128.221 25.14C129.021 25.14 129.701 24.9667 130.261 24.62C130.834 24.26 131.268 23.78 131.561 23.18C131.868 22.58 132.021 21.9067 132.021 21.16C132.021 20.4 131.868 19.72 131.561 19.12C131.254 18.52 130.814 18.0467 130.241 17.7C129.681 17.3533 129.008 17.18 128.221 17.18C127.448 17.18 126.774 17.3533 126.201 17.7C125.628 18.0467 125.188 18.52 124.881 19.12C124.574 19.72 124.421 20.4 124.421 21.16C124.421 21.9067 124.568 22.58 124.861 23.18C125.168 23.78 125.601 24.26 126.161 24.62C126.734 24.9667 127.421 25.14 128.221 25.14ZM136.937 26.5V11.9H138.857V26.5H136.937ZM135.457 13.42V11.9H138.857V13.42H135.457ZM142.659 26.5V11.9H144.579V26.5H142.659ZM141.179 13.42V11.9H144.579V13.42H141.179ZM153.182 26.86C152.249 26.86 151.429 26.7 150.722 26.38C150.015 26.06 149.415 25.64 148.922 25.12C148.442 24.5867 148.075 23.9933 147.822 23.34C147.582 22.6867 147.462 22.02 147.462 21.34V20.98C147.462 20.3 147.589 19.6333 147.842 18.98C148.095 18.3133 148.469 17.72 148.962 17.2C149.455 16.6667 150.055 16.2467 150.762 15.94C151.469 15.62 152.275 15.46 153.182 15.46C154.089 15.46 154.895 15.62 155.602 15.94C156.309 16.2467 156.909 16.6667 157.402 17.2C157.895 17.72 158.269 18.3133 158.522 18.98C158.775 19.6333 158.902 20.3 158.902 20.98V21.34C158.902 22.02 158.775 22.6867 158.522 23.34C158.282 23.9933 157.915 24.5867 157.422 25.12C156.942 25.64 156.349 26.06 155.642 26.38C154.935 26.7 154.115 26.86 153.182 26.86ZM153.182 25.14C153.982 25.14 154.662 24.9667 155.222 24.62C155.795 24.26 156.229 23.78 156.522 23.18C156.829 22.58 156.982 21.9067 156.982 21.16C156.982 20.4 156.829 19.72 156.522 19.12C156.215 18.52 155.775 18.0467 155.202 17.7C154.642 17.3533 153.969 17.18 153.182 17.18C152.409 17.18 151.735 17.3533 151.162 17.7C150.589 18.0467 150.149 18.52 149.842 19.12C149.535 19.72 149.382 20.4 149.382 21.16C149.382 21.9067 149.529 22.58 149.822 23.18C150.129 23.78 150.562 24.26 151.122 24.62C151.695 24.9667 152.382 25.14 153.182 25.14ZM164.702 26.5L166.862 16.18H169.462L171.982 26.5H170.342L167.822 16.22H168.462L166.282 26.5H164.702ZM163.722 26.5V24.98H165.942V26.5H163.722ZM163.282 26.5L160.262 15.82H162.102L165.042 26.5H163.282ZM170.742 26.5V24.98H172.962V26.5H170.742ZM171.642 26.5L174.202 15.82H175.942L173.322 26.5H171.642ZM182.88 26.86C181.947 26.86 181.14 26.7 180.46 26.38C179.78 26.06 179.227 25.64 178.8 25.12C178.373 24.5867 178.053 23.9933 177.84 23.34C177.64 22.6867 177.54 22.02 177.54 21.34V20.98C177.54 20.2867 177.64 19.6133 177.84 18.96C178.053 18.3067 178.373 17.72 178.8 17.2C179.227 16.6667 179.767 16.2467 180.42 15.94C181.087 15.62 181.867 15.46 182.76 15.46C183.92 15.46 184.873 15.7133 185.62 16.22C186.38 16.7133 186.94 17.3533 187.3 18.14C187.673 18.9267 187.86 19.7667 187.86 20.66V21.52H178.38V20.08H186.46L186.02 20.86C186.02 20.1 185.9 19.4467 185.66 18.9C185.42 18.34 185.06 17.9067 184.58 17.6C184.1 17.2933 183.493 17.14 182.76 17.14C182 17.14 181.367 17.3133 180.86 17.66C180.367 18.0067 179.993 18.48 179.74 19.08C179.5 19.68 179.38 20.3733 179.38 21.16C179.38 21.92 179.5 22.6067 179.74 23.22C179.993 23.82 180.38 24.3 180.9 24.66C181.42 25.0067 182.08 25.18 182.88 25.18C183.72 25.18 184.4 24.9933 184.92 24.62C185.453 24.2467 185.773 23.8133 185.88 23.32H187.68C187.533 24.0533 187.24 24.6867 186.8 25.22C186.36 25.7533 185.807 26.16 185.14 26.44C184.473 26.72 183.72 26.86 182.88 26.86ZM190.586 26.5V15.82H192.106V20.22H192.026C192.026 18.66 192.366 17.52 193.046 16.8C193.739 16.0667 194.773 15.7 196.146 15.7H196.506V17.42H195.826C194.759 17.42 193.939 17.7067 193.366 18.28C192.793 18.84 192.506 19.6533 192.506 20.72V26.5H190.586ZM202.289 26.82C200.889 26.82 199.803 26.52 199.029 25.92C198.269 25.32 197.876 24.5 197.849 23.46H199.649C199.676 23.8733 199.883 24.2667 200.269 24.64C200.669 25 201.343 25.18 202.289 25.18C203.143 25.18 203.796 25.0133 204.249 24.68C204.703 24.3333 204.929 23.9133 204.929 23.42C204.929 22.98 204.763 22.64 204.429 22.4C204.096 22.1467 203.556 21.98 202.809 21.9L201.649 21.78C200.636 21.6733 199.809 21.3733 199.169 20.88C198.529 20.3733 198.209 19.6667 198.209 18.76C198.209 18.08 198.383 17.5 198.729 17.02C199.076 16.5267 199.556 16.1533 200.169 15.9C200.783 15.6333 201.489 15.5 202.289 15.5C203.489 15.5 204.463 15.7667 205.209 16.3C205.956 16.8333 206.343 17.6267 206.369 18.68H204.569C204.556 18.2533 204.356 17.8933 203.969 17.6C203.596 17.2933 203.036 17.14 202.289 17.14C201.543 17.14 200.976 17.2933 200.589 17.6C200.203 17.9067 200.009 18.2933 200.009 18.76C200.009 19.16 200.143 19.48 200.409 19.72C200.689 19.96 201.143 20.1133 201.769 20.18L202.929 20.3C204.076 20.42 204.996 20.74 205.689 21.26C206.383 21.7667 206.729 22.4867 206.729 23.42C206.729 24.0867 206.536 24.68 206.149 25.2C205.776 25.7067 205.256 26.1067 204.589 26.4C203.923 26.68 203.156 26.82 202.289 26.82Z" fill="black"/>
</svg>
