<svg width="296" height="472" viewBox="0 0 296 472" fill="none" xmlns="http://www.w3.org/2000/svg">
<path d="M23.197 10.9276C22.8593 10.6512 22.4364 10.5002 22 10.5002C21.5636 10.5002 21.1407 10.6512 20.803 10.9276L14.2155 16.2986C13.9914 16.4824 13.8109 16.7137 13.6871 16.9758C13.5634 17.2379 13.4995 17.5243 13.5 17.8141V27.5566C13.5 28.6301 14.3565 29.5001 15.4125 29.5001H17.5875C18.644 29.5001 19.5 28.6301 19.5 27.5566V23.2501C19.5 22.9186 19.6317 22.6006 19.8661 22.3662C20.1005 22.1318 20.4185 22.0001 20.75 22.0001H23.25C23.5815 22.0001 23.8995 22.1318 24.1339 22.3662C24.3683 22.6006 24.5 22.9186 24.5 23.2501V27.5566C24.5 28.6301 25.356 29.5001 26.4125 29.5001H28.5875C29.644 29.5001 30.5 28.6301 30.5 27.5566V17.8141C30.5005 17.5243 30.4366 17.2379 30.3129 16.9758C30.1891 16.7137 30.0087 16.4824 29.7845 16.2986L23.197 10.9276Z" fill="black"/>
<path d="M56 26.5V11.9H57.96V26.5H56ZM46.12 26.5V11.9H48.08V26.5H46.12ZM47.68 20.12V18.36H56.4V20.12H47.68ZM66.8342 26.86C65.9009 26.86 65.0809 26.7 64.3742 26.38C63.6676 26.06 63.0676 25.64 62.5742 25.12C62.0942 24.5867 61.7276 23.9933 61.4742 23.34C61.2342 22.6867 61.1142 22.02 61.1142 21.34V20.98C61.1142 20.3 61.2409 19.6333 61.4942 18.98C61.7476 18.3133 62.1209 17.72 62.6142 17.2C63.1076 16.6667 63.7076 16.2467 64.4142 15.94C65.1209 15.62 65.9276 15.46 66.8342 15.46C67.7409 15.46 68.5476 15.62 69.2542 15.94C69.9609 16.2467 70.5609 16.6667 71.0542 17.2C71.5476 17.72 71.9209 18.3133 72.1742 18.98C72.4276 19.6333 72.5542 20.3 72.5542 20.98V21.34C72.5542 22.02 72.4276 22.6867 72.1742 23.34C71.9342 23.9933 71.5676 24.5867 71.0742 25.12C70.5942 25.64 70.0009 26.06 69.2942 26.38C68.5876 26.7 67.7676 26.86 66.8342 26.86ZM66.8342 25.14C67.6342 25.14 68.3142 24.9667 68.8742 24.62C69.4476 24.26 69.8809 23.78 70.1742 23.18C70.4809 22.58 70.6342 21.9067 70.6342 21.16C70.6342 20.4 70.4809 19.72 70.1742 19.12C69.8676 18.52 69.4276 18.0467 68.8542 17.7C68.2942 17.3533 67.6209 17.18 66.8342 17.18C66.0609 17.18 65.3876 17.3533 64.8142 17.7C64.2409 18.0467 63.8009 18.52 63.4942 19.12C63.1876 19.72 63.0342 20.4 63.0342 21.16C63.0342 21.9067 63.1809 22.58 63.4742 23.18C63.7809 23.78 64.2142 24.26 64.7742 24.62C65.3476 24.9667 66.0342 25.14 66.8342 25.14ZM75.4298 26.5V15.82H76.9498V20.4H76.7098C76.7098 19.36 76.8432 18.48 77.1098 17.76C77.3898 17.0267 77.8032 16.4667 78.3498 16.08C78.8965 15.6933 79.5898 15.5 80.4298 15.5H80.5098C81.3498 15.5 82.0432 15.6933 82.5898 16.08C83.1498 16.4667 83.5632 17.0267 83.8298 17.76C84.0965 18.48 84.2298 19.36 84.2298 20.4H83.6698C83.6698 19.36 83.8098 18.48 84.0898 17.76C84.3698 17.0267 84.7832 16.4667 85.3298 16.08C85.8898 15.6933 86.5898 15.5 87.4298 15.5H87.5098C88.3498 15.5 89.0498 15.6933 89.6098 16.08C90.1698 16.4667 90.5832 17.0267 90.8498 17.76C91.1298 18.48 91.2698 19.36 91.2698 20.4V26.5H89.3498V19.98C89.3498 19.1133 89.1365 18.4467 88.7098 17.98C88.2832 17.5 87.6898 17.26 86.9298 17.26C86.1432 17.26 85.5098 17.5133 85.0298 18.02C84.5498 18.5133 84.3098 19.2067 84.3098 20.1V26.5H82.3898V19.98C82.3898 19.1133 82.1765 18.4467 81.7498 17.98C81.3232 17.5 80.7298 17.26 79.9698 17.26C79.1832 17.26 78.5498 17.5133 78.0698 18.02C77.5898 18.5133 77.3498 19.2067 77.3498 20.1V26.5H75.4298ZM99.3253 26.86C98.392 26.86 97.5853 26.7 96.9053 26.38C96.2253 26.06 95.672 25.64 95.2453 25.12C94.8186 24.5867 94.4986 23.9933 94.2853 23.34C94.0853 22.6867 93.9853 22.02 93.9853 21.34V20.98C93.9853 20.2867 94.0853 19.6133 94.2853 18.96C94.4986 18.3067 94.8186 17.72 95.2453 17.2C95.672 16.6667 96.212 16.2467 96.8653 15.94C97.532 15.62 98.312 15.46 99.2053 15.46C100.365 15.46 101.319 15.7133 102.065 16.22C102.825 16.7133 103.385 17.3533 103.745 18.14C104.119 18.9267 104.305 19.7667 104.305 20.66V21.52H94.8253V20.08H102.905L102.465 20.86C102.465 20.1 102.345 19.4467 102.105 18.9C101.865 18.34 101.505 17.9067 101.025 17.6C100.545 17.2933 99.9386 17.14 99.2053 17.14C98.4453 17.14 97.812 17.3133 97.3053 17.66C96.812 18.0067 96.4386 18.48 96.1853 19.08C95.9453 19.68 95.8253 20.3733 95.8253 21.16C95.8253 21.92 95.9453 22.6067 96.1853 23.22C96.4386 23.82 96.8253 24.3 97.3453 24.66C97.8653 25.0067 98.5253 25.18 99.3253 25.18C100.165 25.18 100.845 24.9933 101.365 24.62C101.899 24.2467 102.219 23.8133 102.325 23.32H104.125C103.979 24.0533 103.685 24.6867 103.245 25.22C102.805 25.7533 102.252 26.16 101.585 26.44C100.919 26.72 100.165 26.86 99.3253 26.86Z" fill="black"/>
<path d="M15.234 87.73C15.9551 86.5875 16.9538 85.6463 18.1369 84.9941C19.32 84.3418 20.649 83.9999 22 84C23.3512 83.9997 24.6804 84.3416 25.8637 84.9938C27.047 85.6461 28.0458 86.5874 28.767 87.73L30.457 86.66C29.5554 85.2325 28.307 84.0565 26.8282 83.2416C25.3494 82.4268 23.6884 81.9996 22 82C20.3118 81.9998 18.6509 82.427 17.1723 83.2419C15.6938 84.0567 14.4455 85.2326 13.544 86.66L15.234 87.73ZM22 100C20.649 100 19.32 99.6582 18.1369 99.0059C16.9538 98.3537 15.9551 97.4125 15.234 96.27L13.544 97.34C14.4455 98.7674 15.6938 99.9433 17.1723 100.758C18.6509 101.573 20.3118 102 22 102C23.6884 102 25.3494 101.573 26.8282 100.758C28.307 99.9435 29.5554 98.7675 30.457 97.34L28.767 96.27C28.0458 97.4126 27.047 98.3539 25.8637 99.0062C24.6804 99.6584 23.3512 100 22 100ZM22 88C22.2652 88 22.5196 88.1054 22.7071 88.2929C22.8946 88.4804 23 88.7348 23 89C23 89.2652 22.8946 89.5196 22.7071 89.7071C22.5196 89.8946 22.2652 90 22 90C21.7348 90 21.4804 89.8946 21.2929 89.7071C21.1054 89.5196 21 89.2652 21 89C21 88.7348 21.1054 88.4804 21.2929 88.2929C21.4804 88.1054 21.7348 88 22 88ZM22 92C22.7956 92 23.5587 91.6839 24.1213 91.1213C24.6839 90.5587 25 89.7956 25 89C25 88.2044 24.6839 87.4413 24.1213 86.8787C23.5587 86.3161 22.7956 86 22 86C21.2044 86 20.4413 86.3161 19.8787 86.8787C19.3161 87.4413 19 88.2044 19 89C19 89.7956 19.3161 90.5587 19.8787 91.1213C20.4413 91.6839 21.2044 92 22 92ZM22 95C21.4696 95 20.9609 95.2107 20.5858 95.5858C20.2107 95.9609 20 96.4696 20 97H18C18 95.9391 18.4214 94.9217 19.1716 94.1716C19.9217 93.4214 20.9391 93 22 93C23.0609 93 24.0783 93.4214 24.8284 94.1716C25.5786 94.9217 26 95.9391 26 97H24C24 96.4696 23.7893 95.9609 23.4142 95.5858C23.0391 95.2107 22.5304 95 22 95ZM13 91C12.7348 91 12.4804 91.1054 12.2929 91.2929C12.1054 91.4804 12 91.7348 12 92C12 92.2652 12.1054 92.5196 12.2929 92.7071C12.4804 92.8946 12.7348 93 13 93C13.2652 93 13.5196 92.8946 13.7071 92.7071C13.8946 92.5196 14 92.2652 14 92C14 91.7348 13.8946 91.4804 13.7071 91.2929C13.5196 91.1054 13.2652 91 13 91ZM10 92C10 91.2044 10.3161 90.4413 10.8787 89.8787C11.4413 89.3161 12.2044 89 13 89C13.7956 89 14.5587 89.3161 15.1213 89.8787C15.6839 90.4413 16 91.2044 16 92C16 92.7956 15.6839 93.5587 15.1213 94.1213C14.5587 94.6839 13.7956 95 13 95C12.2044 95 11.4413 94.6839 10.8787 94.1213C10.3161 93.5587 10 92.7956 10 92ZM30 92C30 91.7348 30.1054 91.4804 30.2929 91.2929C30.4804 91.1054 30.7348 91 31 91C31.2652 91 31.5196 91.1054 31.7071 91.2929C31.8946 91.4804 32 91.7348 32 92C32 92.2652 31.8946 92.5196 31.7071 92.7071C31.5196 92.8946 31.2652 93 31 93C30.7348 93 30.4804 92.8946 30.2929 92.7071C30.1054 92.5196 30 92.2652 30 92ZM31 89C30.2044 89 29.4413 89.3161 28.8787 89.8787C28.3161 90.4413 28 91.2044 28 92C28 92.7956 28.3161 93.5587 28.8787 94.1213C29.4413 94.6839 30.2044 95 31 95C31.7956 95 32.5587 94.6839 33.1213 94.1213C33.6839 93.5587 34 92.7956 34 92C34 91.2044 33.6839 90.4413 33.1213 89.8787C32.5587 89.3161 31.7956 89 31 89Z" fill="black"/>
<path d="M52.46 98.86C51.1267 98.86 49.9867 98.6267 49.04 98.16C48.1067 97.6933 47.3533 97.0867 46.78 96.34C46.2067 95.5933 45.7867 94.7867 45.52 93.92C45.2533 93.04 45.12 92.1933 45.12 91.38V90.94C45.12 90.06 45.2533 89.18 45.52 88.3C45.8 87.42 46.2267 86.62 46.8 85.9C47.3733 85.18 48.12 84.6 49.04 84.16C49.96 83.72 51.06 83.5 52.34 83.5C53.6467 83.5 54.7667 83.7267 55.7 84.18C56.6333 84.6333 57.3733 85.2667 57.92 86.08C58.4667 86.8933 58.8 87.8533 58.92 88.96H56.92C56.8133 88.1333 56.5467 87.4533 56.12 86.92C55.6933 86.3733 55.1533 85.9667 54.5 85.7C53.86 85.4333 53.14 85.3 52.34 85.3C51.4733 85.3 50.7133 85.4533 50.06 85.76C49.4067 86.0533 48.86 86.4733 48.42 87.02C47.9933 87.5533 47.6667 88.1733 47.44 88.88C47.2267 89.5867 47.12 90.3533 47.12 91.18C47.12 91.9667 47.2267 92.7133 47.44 93.42C47.6667 94.1267 48 94.7533 48.44 95.3C48.8933 95.8467 49.4533 96.28 50.12 96.6C50.7867 96.9067 51.5667 97.06 52.46 97.06C53.7133 97.06 54.7667 96.7467 55.62 96.12C56.4733 95.4933 56.9933 94.5867 57.18 93.4H59.18C59.0467 94.4 58.7067 95.3133 58.16 96.14C57.6267 96.9667 56.88 97.6267 55.92 98.12C54.9733 98.6133 53.82 98.86 52.46 98.86ZM66.6584 98.86C65.7251 98.86 64.9051 98.7 64.1984 98.38C63.4918 98.06 62.8918 97.64 62.3984 97.12C61.9184 96.5867 61.5518 95.9933 61.2984 95.34C61.0584 94.6867 60.9384 94.02 60.9384 93.34V92.98C60.9384 92.3 61.0651 91.6333 61.3184 90.98C61.5718 90.3133 61.9451 89.72 62.4384 89.2C62.9318 88.6667 63.5318 88.2467 64.2384 87.94C64.9451 87.62 65.7518 87.46 66.6584 87.46C67.5651 87.46 68.3718 87.62 69.0784 87.94C69.7851 88.2467 70.3851 88.6667 70.8784 89.2C71.3718 89.72 71.7451 90.3133 71.9984 90.98C72.2518 91.6333 72.3784 92.3 72.3784 92.98V93.34C72.3784 94.02 72.2518 94.6867 71.9984 95.34C71.7584 95.9933 71.3918 96.5867 70.8984 97.12C70.4184 97.64 69.8251 98.06 69.1184 98.38C68.4118 98.7 67.5918 98.86 66.6584 98.86ZM66.6584 97.14C67.4584 97.14 68.1384 96.9667 68.6984 96.62C69.2718 96.26 69.7051 95.78 69.9984 95.18C70.3051 94.58 70.4584 93.9067 70.4584 93.16C70.4584 92.4 70.3051 91.72 69.9984 91.12C69.6918 90.52 69.2518 90.0467 68.6784 89.7C68.1184 89.3533 67.4451 89.18 66.6584 89.18C65.8851 89.18 65.2118 89.3533 64.6384 89.7C64.0651 90.0467 63.6251 90.52 63.3184 91.12C63.0118 91.72 62.8584 92.4 62.8584 93.16C62.8584 93.9067 63.0051 94.58 63.2984 95.18C63.6051 95.78 64.0384 96.26 64.5984 96.62C65.1718 96.9667 65.8584 97.14 66.6584 97.14ZM75.2541 98.5V87.82H76.7741V92.4H76.5341C76.5341 91.36 76.6674 90.48 76.9341 89.76C77.2141 89.0267 77.6274 88.4667 78.1741 88.08C78.7207 87.6933 79.4141 87.5 80.2541 87.5H80.3341C81.1741 87.5 81.8674 87.6933 82.4141 88.08C82.9741 88.4667 83.3874 89.0267 83.6541 89.76C83.9207 90.48 84.0541 91.36 84.0541 92.4H83.4941C83.4941 91.36 83.6341 90.48 83.9141 89.76C84.1941 89.0267 84.6074 88.4667 85.1541 88.08C85.7141 87.6933 86.4141 87.5 87.2541 87.5H87.3341C88.1741 87.5 88.8741 87.6933 89.4341 88.08C89.9941 88.4667 90.4074 89.0267 90.6741 89.76C90.9541 90.48 91.0941 91.36 91.0941 92.4V98.5H89.1741V91.98C89.1741 91.1133 88.9607 90.4467 88.5341 89.98C88.1074 89.5 87.5141 89.26 86.7541 89.26C85.9674 89.26 85.3341 89.5133 84.8541 90.02C84.3741 90.5133 84.1341 91.2067 84.1341 92.1V98.5H82.2141V91.98C82.2141 91.1133 82.0007 90.4467 81.5741 89.98C81.1474 89.5 80.5541 89.26 79.7941 89.26C79.0074 89.26 78.3741 89.5133 77.8941 90.02C77.4141 90.5133 77.1741 91.2067 77.1741 92.1V98.5H75.2541ZM94.6095 98.5V87.82H96.1295V92.4H95.8895C95.8895 91.36 96.0229 90.48 96.2895 89.76C96.5695 89.0267 96.9829 88.4667 97.5295 88.08C98.0762 87.6933 98.7695 87.5 99.6095 87.5H99.6895C100.53 87.5 101.223 87.6933 101.77 88.08C102.33 88.4667 102.743 89.0267 103.01 89.76C103.276 90.48 103.41 91.36 103.41 92.4H102.85C102.85 91.36 102.99 90.48 103.27 89.76C103.55 89.0267 103.963 88.4667 104.51 88.08C105.07 87.6933 105.77 87.5 106.61 87.5H106.69C107.53 87.5 108.23 87.6933 108.79 88.08C109.35 88.4667 109.763 89.0267 110.03 89.76C110.31 90.48 110.45 91.36 110.45 92.4V98.5H108.53V91.98C108.53 91.1133 108.316 90.4467 107.89 89.98C107.463 89.5 106.87 89.26 106.11 89.26C105.323 89.26 104.69 89.5133 104.21 90.02C103.73 90.5133 103.49 91.2067 103.49 92.1V98.5H101.57V91.98C101.57 91.1133 101.356 90.4467 100.93 89.98C100.503 89.5 99.9095 89.26 99.1495 89.26C98.3629 89.26 97.7295 89.5133 97.2495 90.02C96.7695 90.5133 96.5295 91.2067 96.5295 92.1V98.5H94.6095ZM117.665 98.82C116.398 98.82 115.425 98.4067 114.745 97.58C114.065 96.7533 113.725 95.56 113.725 94V87.8H115.645V94.38C115.645 95.22 115.872 95.88 116.325 96.36C116.778 96.8267 117.392 97.06 118.165 97.06C118.965 97.06 119.618 96.8067 120.125 96.3C120.632 95.78 120.885 95.0733 120.885 94.18V87.8H122.805V98.5H121.285V93.92H121.525C121.525 94.9733 121.385 95.8667 121.105 96.6C120.825 97.32 120.405 97.8733 119.845 98.26C119.298 98.6333 118.598 98.82 117.745 98.82H117.665ZM126.524 98.5V87.82H128.044V92.4H127.804C127.804 91.3467 127.944 90.46 128.224 89.74C128.517 89.0067 128.957 88.4533 129.544 88.08C130.13 87.6933 130.87 87.5 131.764 87.5H131.844C133.19 87.5 134.184 87.92 134.824 88.76C135.477 89.6 135.804 90.8133 135.804 92.4V98.5H133.884V92C133.884 91.1733 133.65 90.5133 133.184 90.02C132.717 89.5133 132.077 89.26 131.264 89.26C130.424 89.26 129.744 89.52 129.224 90.04C128.704 90.56 128.444 91.2533 128.444 92.12V98.5H126.524ZM139.837 98.5V87.82H141.757V98.5H139.837ZM138.197 89.34V87.82H141.757V89.34H138.197ZM140.377 86.1C139.95 86.1 139.63 85.9867 139.417 85.76C139.217 85.5333 139.117 85.2467 139.117 84.9C139.117 84.5533 139.217 84.2667 139.417 84.04C139.63 83.8133 139.95 83.7 140.377 83.7C140.803 83.7 141.117 83.8133 141.317 84.04C141.53 84.2667 141.637 84.5533 141.637 84.9C141.637 85.2467 141.53 85.5333 141.317 85.76C141.117 85.9867 140.803 86.1 140.377 86.1ZM149.629 98.62C148.829 98.62 148.136 98.5067 147.549 98.28C146.976 98.0533 146.529 97.6667 146.209 97.12C145.902 96.56 145.749 95.8067 145.749 94.86V84.58H147.589V95.1C147.589 95.6733 147.742 96.12 148.049 96.44C148.369 96.7467 148.816 96.9 149.389 96.9H151.269V98.62H149.629ZM143.909 89.26V87.82H151.269V89.26H143.909ZM153.265 102.66V100.94H154.805C155.258 100.94 155.638 100.88 155.945 100.76C156.265 100.653 156.525 100.467 156.725 100.2C156.938 99.9333 157.111 99.58 157.245 99.14L160.605 87.82H162.485L158.925 99.64C158.711 100.347 158.411 100.92 158.025 101.36C157.638 101.813 157.165 102.14 156.605 102.34C156.058 102.553 155.418 102.66 154.685 102.66H153.265ZM156.525 98.26V96.66H158.845V98.26H156.525ZM156.325 98.26L152.505 87.82H154.465L158.125 98.26H156.325Z" fill="black"/>
<path fill-rule="evenodd" clip-rule="evenodd" d="M14.9997 161C14.9997 159.143 15.7372 157.363 17.0499 156.05C18.3627 154.737 20.1432 154 21.9997 154C23.8562 154 25.6367 154.737 26.9494 156.05C28.2622 157.363 28.9997 159.143 28.9997 161V164.764L30.8217 168.408C30.9056 168.576 30.9452 168.762 30.9367 168.949C30.9283 169.137 30.8721 169.319 30.7735 169.478C30.6749 169.638 30.5372 169.77 30.3734 169.861C30.2096 169.952 30.0252 170 29.8377 170H25.8737C25.6512 170.858 25.1501 171.618 24.4489 172.161C23.7478 172.704 22.8863 172.998 21.9997 172.998C21.1131 172.998 20.2516 172.704 19.5504 172.161C18.8493 171.618 18.3481 170.858 18.1257 170H14.1617C13.9742 170 13.7897 169.952 13.626 169.861C13.4622 169.77 13.3244 169.638 13.2258 169.478C13.1272 169.319 13.0711 169.137 13.0626 168.949C13.0542 168.762 13.0938 168.576 13.1777 168.408L14.9997 164.764V161ZM20.2677 170C20.4432 170.304 20.6957 170.556 20.9997 170.732C21.3038 170.908 21.6486 171 21.9997 171C22.3507 171 22.6956 170.908 22.9996 170.732C23.3037 170.556 23.5561 170.304 23.7317 170H20.2677ZM21.9997 156C20.6736 156 19.4018 156.527 18.4642 157.464C17.5265 158.402 16.9997 159.674 16.9997 161V164.764C16.9997 165.074 16.9274 165.38 16.7887 165.658L15.6187 168H28.3817L27.2117 165.658C27.0726 165.38 27 165.074 26.9997 164.764V161C26.9997 159.674 26.4729 158.402 25.5352 157.464C24.5975 156.527 23.3258 156 21.9997 156Z" fill="black"/>
<path d="M46.12 170.5V155.9H49.32L56.74 168.74H57.38L56.98 169.1V155.9H58.86V170.5H55.62L48.2 157.66H47.56L47.96 157.3V170.5H46.12ZM67.7327 170.86C66.7993 170.86 65.9793 170.7 65.2727 170.38C64.566 170.06 63.966 169.64 63.4727 169.12C62.9927 168.587 62.626 167.993 62.3727 167.34C62.1327 166.687 62.0127 166.02 62.0127 165.34V164.98C62.0127 164.3 62.1393 163.633 62.3927 162.98C62.646 162.313 63.0193 161.72 63.5127 161.2C64.006 160.667 64.606 160.247 65.3127 159.94C66.0193 159.62 66.826 159.46 67.7327 159.46C68.6393 159.46 69.446 159.62 70.1527 159.94C70.8593 160.247 71.4593 160.667 71.9527 161.2C72.446 161.72 72.8193 162.313 73.0727 162.98C73.326 163.633 73.4527 164.3 73.4527 164.98V165.34C73.4527 166.02 73.326 166.687 73.0727 167.34C72.8327 167.993 72.466 168.587 71.9727 169.12C71.4927 169.64 70.8993 170.06 70.1927 170.38C69.486 170.7 68.666 170.86 67.7327 170.86ZM67.7327 169.14C68.5327 169.14 69.2127 168.967 69.7727 168.62C70.346 168.26 70.7793 167.78 71.0727 167.18C71.3793 166.58 71.5327 165.907 71.5327 165.16C71.5327 164.4 71.3793 163.72 71.0727 163.12C70.766 162.52 70.326 162.047 69.7527 161.7C69.1927 161.353 68.5193 161.18 67.7327 161.18C66.9593 161.18 66.286 161.353 65.7127 161.7C65.1393 162.047 64.6993 162.52 64.3927 163.12C64.086 163.72 63.9327 164.4 63.9327 165.16C63.9327 165.907 64.0793 166.58 64.3727 167.18C64.6793 167.78 65.1127 168.26 65.6727 168.62C66.246 168.967 66.9327 169.14 67.7327 169.14ZM80.4883 170.62C79.6883 170.62 78.9949 170.507 78.4083 170.28C77.8349 170.053 77.3883 169.667 77.0683 169.12C76.7616 168.56 76.6083 167.807 76.6083 166.86V156.58H78.4483V167.1C78.4483 167.673 78.6016 168.12 78.9083 168.44C79.2283 168.747 79.6749 168.9 80.2483 168.9H82.1283V170.62H80.4883ZM74.7683 161.26V159.82H82.1283V161.26H74.7683ZM85.3639 170.5V159.82H87.2839V170.5H85.3639ZM83.7239 161.34V159.82H87.2839V161.34H83.7239ZM85.9039 158.1C85.4772 158.1 85.1572 157.987 84.9439 157.76C84.7439 157.533 84.6439 157.247 84.6439 156.9C84.6439 156.553 84.7439 156.267 84.9439 156.04C85.1572 155.813 85.4772 155.7 85.9039 155.7C86.3306 155.7 86.6439 155.813 86.8439 156.04C87.0572 156.267 87.1639 156.553 87.1639 156.9C87.1639 157.247 87.0572 157.533 86.8439 157.76C86.6439 157.987 86.3306 158.1 85.9039 158.1ZM91.2763 170.5V159.16C91.2763 157.973 91.5896 157.1 92.2163 156.54C92.8429 155.98 93.7629 155.7 94.9763 155.7H96.1763V157.3H94.6563C94.1629 157.3 93.7829 157.44 93.5163 157.72C93.2496 157.987 93.1163 158.36 93.1163 158.84V170.5H91.2763ZM89.7963 161.26V159.82H95.9763V161.26H89.7963ZM98.6163 170.5V159.82H100.536V170.5H98.6163ZM97.0563 161.34V159.82H100.536V161.34H97.0563ZM99.1562 158.1C98.7296 158.1 98.4096 157.987 98.1963 157.76C97.9963 157.533 97.8963 157.247 97.8963 156.9C97.8963 156.553 97.9963 156.267 98.1963 156.04C98.4096 155.813 98.7296 155.7 99.1562 155.7C99.5829 155.7 99.8963 155.813 100.096 156.04C100.31 156.267 100.416 156.553 100.416 156.9C100.416 157.247 100.31 157.533 100.096 157.76C99.8963 157.987 99.5829 158.1 99.1562 158.1ZM108.838 170.86C107.918 170.86 107.118 170.7 106.438 170.38C105.771 170.06 105.218 169.633 104.778 169.1C104.338 168.553 104.005 167.953 103.778 167.3C103.565 166.647 103.458 165.993 103.458 165.34V164.98C103.458 164.3 103.565 163.633 103.778 162.98C104.005 162.327 104.338 161.74 104.778 161.22C105.231 160.687 105.791 160.26 106.458 159.94C107.125 159.62 107.905 159.46 108.798 159.46C109.691 159.46 110.491 159.627 111.198 159.96C111.918 160.293 112.491 160.767 112.918 161.38C113.358 161.98 113.605 162.693 113.658 163.52H111.818C111.725 162.853 111.418 162.3 110.898 161.86C110.378 161.407 109.678 161.18 108.798 161.18C108.038 161.18 107.405 161.353 106.898 161.7C106.391 162.047 106.011 162.52 105.758 163.12C105.505 163.72 105.378 164.4 105.378 165.16C105.378 165.893 105.505 166.567 105.758 167.18C106.011 167.78 106.391 168.26 106.898 168.62C107.418 168.967 108.065 169.14 108.838 169.14C109.438 169.14 109.958 169.033 110.398 168.82C110.838 168.607 111.191 168.32 111.458 167.96C111.725 167.6 111.885 167.193 111.938 166.74H113.778C113.738 167.58 113.491 168.307 113.038 168.92C112.598 169.533 112.011 170.013 111.278 170.36C110.558 170.693 109.745 170.86 108.838 170.86ZM122.847 170.5V167.3H122.527V163.6C122.527 162.867 122.334 162.313 121.947 161.94C121.574 161.567 121.02 161.38 120.287 161.38C119.874 161.38 119.447 161.387 119.007 161.4C118.567 161.413 118.147 161.427 117.747 161.44C117.347 161.453 117 161.473 116.707 161.5V159.82C117 159.793 117.307 159.773 117.627 159.76C117.96 159.733 118.3 159.72 118.647 159.72C118.994 159.707 119.327 159.7 119.647 159.7C120.74 159.7 121.634 159.833 122.327 160.1C123.02 160.353 123.534 160.773 123.867 161.36C124.2 161.947 124.367 162.74 124.367 163.74V170.5H122.847ZM119.347 170.78C118.547 170.78 117.854 170.647 117.267 170.38C116.694 170.1 116.247 169.7 115.927 169.18C115.62 168.66 115.467 168.033 115.467 167.3C115.467 166.54 115.634 165.907 115.967 165.4C116.314 164.893 116.814 164.513 117.467 164.26C118.12 163.993 118.907 163.86 119.827 163.86H122.727V165.3H119.747C118.974 165.3 118.38 165.487 117.967 165.86C117.554 166.233 117.347 166.713 117.347 167.3C117.347 167.887 117.554 168.36 117.967 168.72C118.38 169.08 118.974 169.26 119.747 169.26C120.2 169.26 120.634 169.18 121.047 169.02C121.46 168.847 121.8 168.567 122.067 168.18C122.347 167.78 122.5 167.233 122.527 166.54L123.047 167.3C122.98 168.06 122.794 168.7 122.487 169.22C122.194 169.727 121.78 170.113 121.247 170.38C120.727 170.647 120.094 170.78 119.347 170.78ZM132.051 170.62C131.251 170.62 130.557 170.507 129.971 170.28C129.397 170.053 128.951 169.667 128.631 169.12C128.324 168.56 128.171 167.807 128.171 166.86V156.58H130.011V167.1C130.011 167.673 130.164 168.12 130.471 168.44C130.791 168.747 131.237 168.9 131.811 168.9H133.691V170.62H132.051ZM126.331 161.26V159.82H133.691V161.26H126.331ZM136.926 170.5V159.82H138.846V170.5H136.926ZM135.286 161.34V159.82H138.846V161.34H135.286ZM137.466 158.1C137.04 158.1 136.72 157.987 136.506 157.76C136.306 157.533 136.206 157.247 136.206 156.9C136.206 156.553 136.306 156.267 136.506 156.04C136.72 155.813 137.04 155.7 137.466 155.7C137.893 155.7 138.206 155.813 138.406 156.04C138.62 156.267 138.726 156.553 138.726 156.9C138.726 157.247 138.62 157.533 138.406 157.76C138.206 157.987 137.893 158.1 137.466 158.1ZM147.479 170.86C146.545 170.86 145.725 170.7 145.019 170.38C144.312 170.06 143.712 169.64 143.219 169.12C142.739 168.587 142.372 167.993 142.119 167.34C141.879 166.687 141.759 166.02 141.759 165.34V164.98C141.759 164.3 141.885 163.633 142.139 162.98C142.392 162.313 142.765 161.72 143.259 161.2C143.752 160.667 144.352 160.247 145.059 159.94C145.765 159.62 146.572 159.46 147.479 159.46C148.385 159.46 149.192 159.62 149.899 159.94C150.605 160.247 151.205 160.667 151.699 161.2C152.192 161.72 152.565 162.313 152.819 162.98C153.072 163.633 153.199 164.3 153.199 164.98V165.34C153.199 166.02 153.072 166.687 152.819 167.34C152.579 167.993 152.212 168.587 151.719 169.12C151.239 169.64 150.645 170.06 149.939 170.38C149.232 170.7 148.412 170.86 147.479 170.86ZM147.479 169.14C148.279 169.14 148.959 168.967 149.519 168.62C150.092 168.26 150.525 167.78 150.819 167.18C151.125 166.58 151.279 165.907 151.279 165.16C151.279 164.4 151.125 163.72 150.819 163.12C150.512 162.52 150.072 162.047 149.499 161.7C148.939 161.353 148.265 161.18 147.479 161.18C146.705 161.18 146.032 161.353 145.459 161.7C144.885 162.047 144.445 162.52 144.139 163.12C143.832 163.72 143.679 164.4 143.679 165.16C143.679 165.907 143.825 166.58 144.119 167.18C144.425 167.78 144.859 168.26 145.419 168.62C145.992 168.967 146.679 169.14 147.479 169.14ZM156.074 170.5V159.82H157.594V164.4H157.354C157.354 163.347 157.494 162.46 157.774 161.74C158.068 161.007 158.508 160.453 159.094 160.08C159.681 159.693 160.421 159.5 161.314 159.5H161.394C162.741 159.5 163.734 159.92 164.374 160.76C165.028 161.6 165.354 162.813 165.354 164.4V170.5H163.434V164C163.434 163.173 163.201 162.513 162.734 162.02C162.268 161.513 161.628 161.26 160.814 161.26C159.974 161.26 159.294 161.52 158.774 162.04C158.254 162.56 157.994 163.253 157.994 164.12V170.5H156.074Z" fill="black"/>
<path d="M30 226C30.5304 226 31.0391 226.211 31.4142 226.586C31.7893 226.961 32 227.47 32 228V240C32 240.53 31.7893 241.039 31.4142 241.414C31.0391 241.789 30.5304 242 30 242H16L12 246V228C12 227.47 12.2107 226.961 12.5858 226.586C12.9609 226.211 13.4696 226 14 226H30ZM14 228V241.17L15.17 240H30V228H14ZM16 231H28V233H16V231ZM16 235H25V237H16V235Z" fill="black"/>
<path d="M46.12 242.5V227.9H48.72L53.04 237.64H53.36L57.66 227.9H60.28V242.5H58.32V230.04L58.46 230.08L54.32 239.48H51.92L47.76 230.08L47.92 230.04V242.5H46.12ZM68.7784 242.86C67.8451 242.86 67.0384 242.7 66.3584 242.38C65.6784 242.06 65.1251 241.64 64.6984 241.12C64.2718 240.587 63.9518 239.993 63.7384 239.34C63.5384 238.687 63.4384 238.02 63.4384 237.34V236.98C63.4384 236.287 63.5384 235.613 63.7384 234.96C63.9518 234.307 64.2718 233.72 64.6984 233.2C65.1251 232.667 65.6651 232.247 66.3184 231.94C66.9851 231.62 67.7651 231.46 68.6584 231.46C69.8184 231.46 70.7718 231.713 71.5184 232.22C72.2784 232.713 72.8384 233.353 73.1984 234.14C73.5718 234.927 73.7584 235.767 73.7584 236.66V237.52H64.2784V236.08H72.3584L71.9184 236.86C71.9184 236.1 71.7984 235.447 71.5584 234.9C71.3184 234.34 70.9584 233.907 70.4784 233.6C69.9984 233.293 69.3918 233.14 68.6584 233.14C67.8984 233.14 67.2651 233.313 66.7584 233.66C66.2651 234.007 65.8918 234.48 65.6384 235.08C65.3984 235.68 65.2784 236.373 65.2784 237.16C65.2784 237.92 65.3984 238.607 65.6384 239.22C65.8918 239.82 66.2784 240.3 66.7984 240.66C67.3184 241.007 67.9784 241.18 68.7784 241.18C69.6184 241.18 70.2984 240.993 70.8184 240.62C71.3518 240.247 71.6718 239.813 71.7784 239.32H73.5784C73.4318 240.053 73.1384 240.687 72.6984 241.22C72.2584 241.753 71.7051 242.16 71.0384 242.44C70.3718 242.72 69.6184 242.86 68.7784 242.86ZM79.9845 242.82C78.5845 242.82 77.4979 242.52 76.7245 241.92C75.9645 241.32 75.5712 240.5 75.5445 239.46H77.3445C77.3712 239.873 77.5779 240.267 77.9645 240.64C78.3645 241 79.0379 241.18 79.9845 241.18C80.8379 241.18 81.4912 241.013 81.9445 240.68C82.3979 240.333 82.6245 239.913 82.6245 239.42C82.6245 238.98 82.4579 238.64 82.1245 238.4C81.7912 238.147 81.2512 237.98 80.5045 237.9L79.3445 237.78C78.3312 237.673 77.5045 237.373 76.8645 236.88C76.2245 236.373 75.9045 235.667 75.9045 234.76C75.9045 234.08 76.0779 233.5 76.4245 233.02C76.7712 232.527 77.2512 232.153 77.8645 231.9C78.4779 231.633 79.1845 231.5 79.9845 231.5C81.1845 231.5 82.1579 231.767 82.9045 232.3C83.6512 232.833 84.0379 233.627 84.0645 234.68H82.2645C82.2512 234.253 82.0512 233.893 81.6645 233.6C81.2912 233.293 80.7312 233.14 79.9845 233.14C79.2379 233.14 78.6712 233.293 78.2845 233.6C77.8979 233.907 77.7045 234.293 77.7045 234.76C77.7045 235.16 77.8379 235.48 78.1045 235.72C78.3845 235.96 78.8379 236.113 79.4645 236.18L80.6245 236.3C81.7712 236.42 82.6912 236.74 83.3845 237.26C84.0779 237.767 84.4245 238.487 84.4245 239.42C84.4245 240.087 84.2312 240.68 83.8445 241.2C83.4712 241.707 82.9512 242.107 82.2845 242.4C81.6179 242.68 80.8512 242.82 79.9845 242.82ZM90.7072 242.82C89.3072 242.82 88.2205 242.52 87.4472 241.92C86.6872 241.32 86.2939 240.5 86.2672 239.46H88.0672C88.0939 239.873 88.3005 240.267 88.6872 240.64C89.0872 241 89.7605 241.18 90.7072 241.18C91.5605 241.18 92.2139 241.013 92.6672 240.68C93.1205 240.333 93.3472 239.913 93.3472 239.42C93.3472 238.98 93.1805 238.64 92.8472 238.4C92.5139 238.147 91.9739 237.98 91.2272 237.9L90.0672 237.78C89.0539 237.673 88.2272 237.373 87.5872 236.88C86.9472 236.373 86.6272 235.667 86.6272 234.76C86.6272 234.08 86.8005 233.5 87.1472 233.02C87.4939 232.527 87.9739 232.153 88.5872 231.9C89.2005 231.633 89.9072 231.5 90.7072 231.5C91.9072 231.5 92.8805 231.767 93.6272 232.3C94.3739 232.833 94.7605 233.627 94.7872 234.68H92.9872C92.9739 234.253 92.7739 233.893 92.3872 233.6C92.0139 233.293 91.4539 233.14 90.7072 233.14C89.9605 233.14 89.3939 233.293 89.0072 233.6C88.6205 233.907 88.4272 234.293 88.4272 234.76C88.4272 235.16 88.5605 235.48 88.8272 235.72C89.1072 235.96 89.5605 236.113 90.1872 236.18L91.3472 236.3C92.4939 236.42 93.4139 236.74 94.1072 237.26C94.8005 237.767 95.1472 238.487 95.1472 239.42C95.1472 240.087 94.9539 240.68 94.5672 241.2C94.1939 241.707 93.6739 242.107 93.0072 242.4C92.3405 242.68 91.5739 242.82 90.7072 242.82ZM104.39 242.5V239.3H104.07V235.6C104.07 234.867 103.877 234.313 103.49 233.94C103.117 233.567 102.563 233.38 101.83 233.38C101.417 233.38 100.99 233.387 100.55 233.4C100.11 233.413 99.6898 233.427 99.2898 233.44C98.8898 233.453 98.5432 233.473 98.2498 233.5V231.82C98.5432 231.793 98.8498 231.773 99.1698 231.76C99.5032 231.733 99.8432 231.72 100.19 231.72C100.537 231.707 100.87 231.7 101.19 231.7C102.283 231.7 103.177 231.833 103.87 232.1C104.563 232.353 105.077 232.773 105.41 233.36C105.743 233.947 105.91 234.74 105.91 235.74V242.5H104.39ZM100.89 242.78C100.09 242.78 99.3965 242.647 98.8098 242.38C98.2365 242.1 97.7898 241.7 97.4698 241.18C97.1632 240.66 97.0098 240.033 97.0098 239.3C97.0098 238.54 97.1765 237.907 97.5098 237.4C97.8565 236.893 98.3565 236.513 99.0098 236.26C99.6632 235.993 100.45 235.86 101.37 235.86H104.27V237.3H101.29C100.517 237.3 99.9232 237.487 99.5098 237.86C99.0965 238.233 98.8898 238.713 98.8898 239.3C98.8898 239.887 99.0965 240.36 99.5098 240.72C99.9232 241.08 100.517 241.26 101.29 241.26C101.743 241.26 102.177 241.18 102.59 241.02C103.003 240.847 103.343 240.567 103.61 240.18C103.89 239.78 104.043 239.233 104.07 238.54L104.59 239.3C104.523 240.06 104.337 240.7 104.03 241.22C103.737 241.727 103.323 242.113 102.79 242.38C102.27 242.647 101.637 242.78 100.89 242.78ZM113.474 246.66C112.98 246.66 112.48 246.64 111.974 246.6C111.48 246.56 111.007 246.507 110.554 246.44V244.82C111.034 244.887 111.534 244.94 112.054 244.98C112.587 245.033 113.087 245.06 113.554 245.06C114.527 245.06 115.3 244.927 115.874 244.66C116.46 244.407 116.88 244 117.134 243.44C117.4 242.893 117.534 242.187 117.534 241.32V239.28L118.174 237.76C118.134 238.84 117.907 239.74 117.494 240.46C117.08 241.167 116.54 241.7 115.874 242.06C115.22 242.407 114.494 242.58 113.694 242.58C112.947 242.58 112.26 242.44 111.634 242.16C111.02 241.867 110.487 241.467 110.034 240.96C109.594 240.453 109.247 239.873 108.994 239.22C108.754 238.553 108.634 237.853 108.634 237.12V236.76C108.634 236.013 108.76 235.32 109.014 234.68C109.267 234.027 109.62 233.46 110.074 232.98C110.527 232.5 111.067 232.127 111.694 231.86C112.334 231.593 113.034 231.46 113.794 231.46C114.687 231.46 115.474 231.653 116.154 232.04C116.834 232.413 117.367 232.967 117.754 233.7C118.154 234.42 118.374 235.307 118.414 236.36L117.854 236.38V231.82H119.374V241.24C119.374 242.52 119.174 243.553 118.774 244.34C118.387 245.14 117.76 245.727 116.894 246.1C116.04 246.473 114.9 246.66 113.474 246.66ZM114.054 240.82C114.694 240.82 115.274 240.68 115.794 240.4C116.327 240.12 116.747 239.72 117.054 239.2C117.374 238.667 117.534 238.033 117.534 237.3V236.38C117.534 235.66 117.367 235.053 117.034 234.56C116.714 234.067 116.294 233.693 115.774 233.44C115.254 233.187 114.687 233.06 114.074 233.06C113.38 233.06 112.767 233.22 112.234 233.54C111.7 233.86 111.287 234.313 110.994 234.9C110.7 235.473 110.554 236.153 110.554 236.94C110.554 237.727 110.7 238.413 110.994 239C111.3 239.587 111.714 240.04 112.234 240.36C112.767 240.667 113.374 240.82 114.054 240.82ZM127.47 242.86C126.537 242.86 125.73 242.7 125.05 242.38C124.37 242.06 123.817 241.64 123.39 241.12C122.963 240.587 122.643 239.993 122.43 239.34C122.23 238.687 122.13 238.02 122.13 237.34V236.98C122.13 236.287 122.23 235.613 122.43 234.96C122.643 234.307 122.963 233.72 123.39 233.2C123.817 232.667 124.357 232.247 125.01 231.94C125.677 231.62 126.457 231.46 127.35 231.46C128.51 231.46 129.463 231.713 130.21 232.22C130.97 232.713 131.53 233.353 131.89 234.14C132.263 234.927 132.45 235.767 132.45 236.66V237.52H122.97V236.08H131.05L130.61 236.86C130.61 236.1 130.49 235.447 130.25 234.9C130.01 234.34 129.65 233.907 129.17 233.6C128.69 233.293 128.083 233.14 127.35 233.14C126.59 233.14 125.957 233.313 125.45 233.66C124.957 234.007 124.583 234.48 124.33 235.08C124.09 235.68 123.97 236.373 123.97 237.16C123.97 237.92 124.09 238.607 124.33 239.22C124.583 239.82 124.97 240.3 125.49 240.66C126.01 241.007 126.67 241.18 127.47 241.18C128.31 241.18 128.99 240.993 129.51 240.62C130.043 240.247 130.363 239.813 130.47 239.32H132.27C132.123 240.053 131.83 240.687 131.39 241.22C130.95 241.753 130.397 242.16 129.73 242.44C129.063 242.72 128.31 242.86 127.47 242.86ZM138.676 242.82C137.276 242.82 136.189 242.52 135.416 241.92C134.656 241.32 134.263 240.5 134.236 239.46H136.036C136.063 239.873 136.269 240.267 136.656 240.64C137.056 241 137.729 241.18 138.676 241.18C139.529 241.18 140.183 241.013 140.636 240.68C141.089 240.333 141.316 239.913 141.316 239.42C141.316 238.98 141.149 238.64 140.816 238.4C140.483 238.147 139.943 237.98 139.196 237.9L138.036 237.78C137.023 237.673 136.196 237.373 135.556 236.88C134.916 236.373 134.596 235.667 134.596 234.76C134.596 234.08 134.769 233.5 135.116 233.02C135.463 232.527 135.943 232.153 136.556 231.9C137.169 231.633 137.876 231.5 138.676 231.5C139.876 231.5 140.849 231.767 141.596 232.3C142.343 232.833 142.729 233.627 142.756 234.68H140.956C140.943 234.253 140.743 233.893 140.356 233.6C139.983 233.293 139.423 233.14 138.676 233.14C137.929 233.14 137.363 233.293 136.976 233.6C136.589 233.907 136.396 234.293 136.396 234.76C136.396 235.16 136.529 235.48 136.796 235.72C137.076 235.96 137.529 236.113 138.156 236.18L139.316 236.3C140.463 236.42 141.383 236.74 142.076 237.26C142.769 237.767 143.116 238.487 143.116 239.42C143.116 240.087 142.923 240.68 142.536 241.2C142.163 241.707 141.643 242.107 140.976 242.4C140.309 242.68 139.543 242.82 138.676 242.82Z" fill="black"/>
<path d="M14 314C14 312.939 14.4214 311.922 15.1716 311.172C15.9217 310.421 16.9391 310 18 310H26C27.0609 310 28.0783 310.421 28.8284 311.172C29.5786 311.922 30 312.939 30 314C30 314.53 29.7893 315.039 29.4142 315.414C29.0391 315.789 28.5304 316 28 316H16C15.4696 316 14.9609 315.789 14.5858 315.414C14.2107 315.039 14 314.53 14 314Z" stroke="black" stroke-width="2" stroke-linejoin="round"/>
<path d="M22 306C23.6569 306 25 304.657 25 303C25 301.343 23.6569 300 22 300C20.3431 300 19 301.343 19 303C19 304.657 20.3431 306 22 306Z" stroke="black" stroke-width="2"/>
<path d="M47.68 309.42V307.7H50.94C51.6333 307.7 52.2067 307.567 52.66 307.3C53.1133 307.02 53.4533 306.647 53.68 306.18C53.92 305.713 54.04 305.193 54.04 304.62C54.04 304.033 53.92 303.507 53.68 303.04C53.4533 302.573 53.1133 302.207 52.66 301.94C52.2067 301.673 51.6333 301.54 50.94 301.54H47.68V299.82H50.58C51.78 299.82 52.78 300.013 53.58 300.4C54.3933 300.773 55.0067 301.307 55.42 302C55.8333 302.693 56.04 303.513 56.04 304.46V304.78C56.04 305.713 55.8333 306.533 55.42 307.24C55.0067 307.933 54.3933 308.473 53.58 308.86C52.78 309.233 51.78 309.42 50.58 309.42H47.68ZM46.12 314.5V299.82H48.08V314.5H46.12ZM58.672 314.5V303.82H60.192V308.22H60.112C60.112 306.66 60.452 305.52 61.132 304.8C61.8254 304.067 62.8587 303.7 64.232 303.7H64.592V305.42H63.912C62.8454 305.42 62.0254 305.707 61.452 306.28C60.8787 306.84 60.592 307.653 60.592 308.72V314.5H58.672ZM71.678 314.86C70.7446 314.86 69.9246 314.7 69.218 314.38C68.5113 314.06 67.9113 313.64 67.418 313.12C66.938 312.587 66.5713 311.993 66.318 311.34C66.078 310.687 65.958 310.02 65.958 309.34V308.98C65.958 308.3 66.0846 307.633 66.338 306.98C66.5913 306.313 66.9646 305.72 67.458 305.2C67.9513 304.667 68.5513 304.247 69.258 303.94C69.9646 303.62 70.7713 303.46 71.678 303.46C72.5846 303.46 73.3913 303.62 74.098 303.94C74.8046 304.247 75.4046 304.667 75.898 305.2C76.3913 305.72 76.7646 306.313 77.018 306.98C77.2713 307.633 77.398 308.3 77.398 308.98V309.34C77.398 310.02 77.2713 310.687 77.018 311.34C76.778 311.993 76.4113 312.587 75.918 313.12C75.438 313.64 74.8446 314.06 74.138 314.38C73.4313 314.7 72.6113 314.86 71.678 314.86ZM71.678 313.14C72.478 313.14 73.158 312.967 73.718 312.62C74.2913 312.26 74.7246 311.78 75.018 311.18C75.3246 310.58 75.478 309.907 75.478 309.16C75.478 308.4 75.3246 307.72 75.018 307.12C74.7113 306.52 74.2713 306.047 73.698 305.7C73.138 305.353 72.4646 305.18 71.678 305.18C70.9046 305.18 70.2313 305.353 69.658 305.7C69.0846 306.047 68.6446 306.52 68.338 307.12C68.0313 307.72 67.878 308.4 67.878 309.16C67.878 309.907 68.0246 310.58 68.318 311.18C68.6246 311.78 69.058 312.26 69.618 312.62C70.1913 312.967 70.878 313.14 71.678 313.14ZM80.5536 314.5V303.16C80.5536 301.973 80.8669 301.1 81.4936 300.54C82.1203 299.98 83.0403 299.7 84.2536 299.7H85.4536V301.3H83.9336C83.4403 301.3 83.0603 301.44 82.7936 301.72C82.5269 301.987 82.3936 302.36 82.3936 302.84V314.5H80.5536ZM79.0736 305.26V303.82H85.2536V305.26H79.0736ZM87.8936 314.5V303.82H89.8136V314.5H87.8936ZM86.3336 305.34V303.82H89.8136V305.34H86.3336ZM88.4336 302.1C88.0069 302.1 87.6869 301.987 87.4736 301.76C87.2736 301.533 87.1736 301.247 87.1736 300.9C87.1736 300.553 87.2736 300.267 87.4736 300.04C87.6869 299.813 88.0069 299.7 88.4336 299.7C88.8603 299.7 89.1736 299.813 89.3736 300.04C89.5869 300.267 89.6936 300.553 89.6936 300.9C89.6936 301.247 89.5869 301.533 89.3736 301.76C89.1736 301.987 88.8603 302.1 88.4336 302.1ZM93.6553 314.5V299.9H95.5753V314.5H93.6553ZM92.1753 301.42V299.9H95.5753V301.42H92.1753ZM103.798 314.86C102.865 314.86 102.058 314.7 101.378 314.38C100.698 314.06 100.145 313.64 99.718 313.12C99.2913 312.587 98.9713 311.993 98.758 311.34C98.558 310.687 98.458 310.02 98.458 309.34V308.98C98.458 308.287 98.558 307.613 98.758 306.96C98.9713 306.307 99.2913 305.72 99.718 305.2C100.145 304.667 100.685 304.247 101.338 303.94C102.005 303.62 102.785 303.46 103.678 303.46C104.838 303.46 105.791 303.713 106.538 304.22C107.298 304.713 107.858 305.353 108.218 306.14C108.591 306.927 108.778 307.767 108.778 308.66V309.52H99.298V308.08H107.378L106.938 308.86C106.938 308.1 106.818 307.447 106.578 306.9C106.338 306.34 105.978 305.907 105.498 305.6C105.018 305.293 104.411 305.14 103.678 305.14C102.918 305.14 102.285 305.313 101.778 305.66C101.285 306.007 100.911 306.48 100.658 307.08C100.418 307.68 100.298 308.373 100.298 309.16C100.298 309.92 100.418 310.607 100.658 311.22C100.911 311.82 101.298 312.3 101.818 312.66C102.338 313.007 102.998 313.18 103.798 313.18C104.638 313.18 105.318 312.993 105.838 312.62C106.371 312.247 106.691 311.813 106.798 311.32H108.598C108.451 312.053 108.158 312.687 107.718 313.22C107.278 313.753 106.725 314.16 106.058 314.44C105.391 314.72 104.638 314.86 103.798 314.86Z" fill="black"/>
<path d="M16.75 373.25C14.275 373.25 12.25 375.275 12.25 377.75C12.25 379.238 12.9827 380.562 14.1017 381.383C12.124 382.364 10.75 384.398 10.75 386.75H12.25C12.25 384.257 14.257 382.25 16.75 382.25C19.243 382.25 21.25 384.257 21.25 386.75H22.75C22.75 384.257 24.757 382.25 27.25 382.25C29.743 382.25 31.75 384.257 31.75 386.75H33.25C33.25 384.397 31.876 382.364 29.8983 381.383C30.4711 380.966 30.9375 380.42 31.2592 379.788C31.581 379.157 31.7492 378.459 31.75 377.75C31.75 375.275 29.725 373.25 27.25 373.25C24.775 373.25 22.75 375.275 22.75 377.75C22.75 379.238 23.4827 380.562 24.6017 381.383C23.5059 381.922 22.5988 382.78 22 383.844C21.4012 382.78 20.4941 381.922 19.3983 381.383C19.9711 380.966 20.4375 380.42 20.7592 379.788C21.081 379.157 21.2492 378.459 21.25 377.75C21.25 375.275 19.225 373.25 16.75 373.25ZM16.75 374.75C18.4173 374.75 19.75 376.083 19.75 377.75C19.75 379.417 18.4173 380.75 16.75 380.75C15.0827 380.75 13.75 379.417 13.75 377.75C13.75 376.083 15.0827 374.75 16.75 374.75ZM27.25 374.75C28.9172 374.75 30.25 376.083 30.25 377.75C30.25 379.417 28.9172 380.75 27.25 380.75C25.5828 380.75 24.25 379.417 24.25 377.75C24.25 376.083 25.5828 374.75 27.25 374.75Z" fill="black"/>
<path d="M46.12 386.5V371.9H48.08V386.5H46.12ZM47.68 386.5V384.74H54.36V386.5H47.68ZM57.2389 386.5V375.82H59.1589V386.5H57.2389ZM55.5989 377.34V375.82H59.1589V377.34H55.5989ZM57.7789 374.1C57.3522 374.1 57.0322 373.987 56.8189 373.76C56.6189 373.533 56.5189 373.247 56.5189 372.9C56.5189 372.553 56.6189 372.267 56.8189 372.04C57.0322 371.813 57.3522 371.7 57.7789 371.7C58.2056 371.7 58.5189 371.813 58.7189 372.04C58.9322 372.267 59.0389 372.553 59.0389 372.9C59.0389 373.247 58.9322 373.533 58.7189 373.76C58.5189 373.987 58.2056 374.1 57.7789 374.1ZM66.3713 386.82C64.9713 386.82 63.8846 386.52 63.1113 385.92C62.3513 385.32 61.9579 384.5 61.9313 383.46H63.7313C63.7579 383.873 63.9646 384.267 64.3513 384.64C64.7513 385 65.4246 385.18 66.3713 385.18C67.2246 385.18 67.8779 385.013 68.3313 384.68C68.7846 384.333 69.0113 383.913 69.0113 383.42C69.0113 382.98 68.8446 382.64 68.5113 382.4C68.1779 382.147 67.6379 381.98 66.8913 381.9L65.7313 381.78C64.7179 381.673 63.8913 381.373 63.2513 380.88C62.6113 380.373 62.2913 379.667 62.2913 378.76C62.2913 378.08 62.4646 377.5 62.8113 377.02C63.1579 376.527 63.6379 376.153 64.2513 375.9C64.8646 375.633 65.5713 375.5 66.3713 375.5C67.5713 375.5 68.5446 375.767 69.2913 376.3C70.0379 376.833 70.4246 377.627 70.4513 378.68H68.6513C68.6379 378.253 68.4379 377.893 68.0513 377.6C67.6779 377.293 67.1179 377.14 66.3713 377.14C65.6246 377.14 65.0579 377.293 64.6713 377.6C64.2846 377.907 64.0913 378.293 64.0913 378.76C64.0913 379.16 64.2246 379.48 64.4913 379.72C64.7713 379.96 65.2246 380.113 65.8513 380.18L67.0113 380.3C68.1579 380.42 69.0779 380.74 69.7713 381.26C70.4646 381.767 70.8113 382.487 70.8113 383.42C70.8113 384.087 70.6179 384.68 70.2313 385.2C69.8579 385.707 69.3379 386.107 68.6713 386.4C68.0046 386.68 67.2379 386.82 66.3713 386.82ZM77.7539 386.62C76.9539 386.62 76.2606 386.507 75.6739 386.28C75.1006 386.053 74.6539 385.667 74.3339 385.12C74.0272 384.56 73.8739 383.807 73.8739 382.86V372.58H75.7139V383.1C75.7139 383.673 75.8672 384.12 76.1739 384.44C76.4939 384.747 76.9406 384.9 77.5139 384.9H79.3939V386.62H77.7539ZM72.0339 377.26V375.82H79.3939V377.26H72.0339ZM91.5803 386.86C90.647 386.86 89.827 386.7 89.1203 386.38C88.4136 386.06 87.8136 385.64 87.3203 385.12C86.8403 384.587 86.4736 383.993 86.2203 383.34C85.9803 382.687 85.8603 382.02 85.8603 381.34V380.98C85.8603 380.3 85.987 379.633 86.2403 378.98C86.4936 378.313 86.867 377.72 87.3603 377.2C87.8536 376.667 88.4536 376.247 89.1603 375.94C89.867 375.62 90.6736 375.46 91.5803 375.46C92.487 375.46 93.2936 375.62 94.0003 375.94C94.707 376.247 95.307 376.667 95.8003 377.2C96.2936 377.72 96.667 378.313 96.9203 378.98C97.1736 379.633 97.3003 380.3 97.3003 380.98V381.34C97.3003 382.02 97.1736 382.687 96.9203 383.34C96.6803 383.993 96.3136 384.587 95.8203 385.12C95.3403 385.64 94.747 386.06 94.0403 386.38C93.3336 386.7 92.5136 386.86 91.5803 386.86ZM91.5803 385.14C92.3803 385.14 93.0603 384.967 93.6203 384.62C94.1936 384.26 94.627 383.78 94.9203 383.18C95.227 382.58 95.3803 381.907 95.3803 381.16C95.3803 380.4 95.227 379.72 94.9203 379.12C94.6136 378.52 94.1736 378.047 93.6003 377.7C93.0403 377.353 92.367 377.18 91.5803 377.18C90.807 377.18 90.1336 377.353 89.5603 377.7C88.987 378.047 88.547 378.52 88.2403 379.12C87.9336 379.72 87.7803 380.4 87.7803 381.16C87.7803 381.907 87.927 382.58 88.2203 383.18C88.527 383.78 88.9603 384.26 89.5203 384.62C90.0936 384.967 90.7803 385.14 91.5803 385.14ZM100.456 386.5V375.28C100.456 374.093 100.769 373.22 101.396 372.66C102.023 372.1 102.943 371.82 104.156 371.82H105.476V373.42H103.836C103.343 373.42 102.963 373.56 102.696 373.84C102.429 374.107 102.296 374.48 102.296 374.96V386.5H100.456ZM98.9759 377.38V375.94H105.676V377.38H98.9759ZM112.585 386.5V371.9H114.545V386.5H112.585ZM114.145 380V378.24L120.405 378.22V379.98L114.145 380ZM114.145 373.66V371.9H120.745V373.66H114.145ZM128.221 386.86C127.288 386.86 126.468 386.7 125.761 386.38C125.054 386.06 124.454 385.64 123.961 385.12C123.481 384.587 123.114 383.993 122.861 383.34C122.621 382.687 122.501 382.02 122.501 381.34V380.98C122.501 380.3 122.628 379.633 122.881 378.98C123.134 378.313 123.508 377.72 124.001 377.2C124.494 376.667 125.094 376.247 125.801 375.94C126.508 375.62 127.314 375.46 128.221 375.46C129.128 375.46 129.934 375.62 130.641 375.94C131.348 376.247 131.948 376.667 132.441 377.2C132.934 377.72 133.308 378.313 133.561 378.98C133.814 379.633 133.941 380.3 133.941 380.98V381.34C133.941 382.02 133.814 382.687 133.561 383.34C133.321 383.993 132.954 384.587 132.461 385.12C131.981 385.64 131.388 386.06 130.681 386.38C129.974 386.7 129.154 386.86 128.221 386.86ZM128.221 385.14C129.021 385.14 129.701 384.967 130.261 384.62C130.834 384.26 131.268 383.78 131.561 383.18C131.868 382.58 132.021 381.907 132.021 381.16C132.021 380.4 131.868 379.72 131.561 379.12C131.254 378.52 130.814 378.047 130.241 377.7C129.681 377.353 129.008 377.18 128.221 377.18C127.448 377.18 126.774 377.353 126.201 377.7C125.628 378.047 125.188 378.52 124.881 379.12C124.574 379.72 124.421 380.4 124.421 381.16C124.421 381.907 124.568 382.58 124.861 383.18C125.168 383.78 125.601 384.26 126.161 384.62C126.734 384.967 127.421 385.14 128.221 385.14ZM136.937 386.5V371.9H138.857V386.5H136.937ZM135.457 373.42V371.9H138.857V373.42H135.457ZM142.659 386.5V371.9H144.579V386.5H142.659ZM141.179 373.42V371.9H144.579V373.42H141.179ZM153.182 386.86C152.249 386.86 151.429 386.7 150.722 386.38C150.015 386.06 149.415 385.64 148.922 385.12C148.442 384.587 148.075 383.993 147.822 383.34C147.582 382.687 147.462 382.02 147.462 381.34V380.98C147.462 380.3 147.589 379.633 147.842 378.98C148.095 378.313 148.469 377.72 148.962 377.2C149.455 376.667 150.055 376.247 150.762 375.94C151.469 375.62 152.275 375.46 153.182 375.46C154.089 375.46 154.895 375.62 155.602 375.94C156.309 376.247 156.909 376.667 157.402 377.2C157.895 377.72 158.269 378.313 158.522 378.98C158.775 379.633 158.902 380.3 158.902 380.98V381.34C158.902 382.02 158.775 382.687 158.522 383.34C158.282 383.993 157.915 384.587 157.422 385.12C156.942 385.64 156.349 386.06 155.642 386.38C154.935 386.7 154.115 386.86 153.182 386.86ZM153.182 385.14C153.982 385.14 154.662 384.967 155.222 384.62C155.795 384.26 156.229 383.78 156.522 383.18C156.829 382.58 156.982 381.907 156.982 381.16C156.982 380.4 156.829 379.72 156.522 379.12C156.215 378.52 155.775 378.047 155.202 377.7C154.642 377.353 153.969 377.18 153.182 377.18C152.409 377.18 151.735 377.353 151.162 377.7C150.589 378.047 150.149 378.52 149.842 379.12C149.535 379.72 149.382 380.4 149.382 381.16C149.382 381.907 149.529 382.58 149.822 383.18C150.129 383.78 150.562 384.26 151.122 384.62C151.695 384.967 152.382 385.14 153.182 385.14ZM164.702 386.5L166.862 376.18H169.462L171.982 386.5H170.342L167.822 376.22H168.462L166.282 386.5H164.702ZM163.722 386.5V384.98H165.942V386.5H163.722ZM163.282 386.5L160.262 375.82H162.102L165.042 386.5H163.282ZM170.742 386.5V384.98H172.962V386.5H170.742ZM171.642 386.5L174.202 375.82H175.942L173.322 386.5H171.642ZM182.88 386.86C181.947 386.86 181.14 386.7 180.46 386.38C179.78 386.06 179.227 385.64 178.8 385.12C178.373 384.587 178.053 383.993 177.84 383.34C177.64 382.687 177.54 382.02 177.54 381.34V380.98C177.54 380.287 177.64 379.613 177.84 378.96C178.053 378.307 178.373 377.72 178.8 377.2C179.227 376.667 179.767 376.247 180.42 375.94C181.087 375.62 181.867 375.46 182.76 375.46C183.92 375.46 184.873 375.713 185.62 376.22C186.38 376.713 186.94 377.353 187.3 378.14C187.673 378.927 187.86 379.767 187.86 380.66V381.52H178.38V380.08H186.46L186.02 380.86C186.02 380.1 185.9 379.447 185.66 378.9C185.42 378.34 185.06 377.907 184.58 377.6C184.1 377.293 183.493 377.14 182.76 377.14C182 377.14 181.367 377.313 180.86 377.66C180.367 378.007 179.993 378.48 179.74 379.08C179.5 379.68 179.38 380.373 179.38 381.16C179.38 381.92 179.5 382.607 179.74 383.22C179.993 383.82 180.38 384.3 180.9 384.66C181.42 385.007 182.08 385.18 182.88 385.18C183.72 385.18 184.4 384.993 184.92 384.62C185.453 384.247 185.773 383.813 185.88 383.32H187.68C187.533 384.053 187.24 384.687 186.8 385.22C186.36 385.753 185.807 386.16 185.14 386.44C184.473 386.72 183.72 386.86 182.88 386.86ZM190.586 386.5V375.82H192.106V380.22H192.026C192.026 378.66 192.366 377.52 193.046 376.8C193.739 376.067 194.773 375.7 196.146 375.7H196.506V377.42H195.826C194.759 377.42 193.939 377.707 193.366 378.28C192.793 378.84 192.506 379.653 192.506 380.72V386.5H190.586ZM202.289 386.82C200.889 386.82 199.803 386.52 199.029 385.92C198.269 385.32 197.876 384.5 197.849 383.46H199.649C199.676 383.873 199.883 384.267 200.269 384.64C200.669 385 201.343 385.18 202.289 385.18C203.143 385.18 203.796 385.013 204.249 384.68C204.703 384.333 204.929 383.913 204.929 383.42C204.929 382.98 204.763 382.64 204.429 382.4C204.096 382.147 203.556 381.98 202.809 381.9L201.649 381.78C200.636 381.673 199.809 381.373 199.169 380.88C198.529 380.373 198.209 379.667 198.209 378.76C198.209 378.08 198.383 377.5 198.729 377.02C199.076 376.527 199.556 376.153 200.169 375.9C200.783 375.633 201.489 375.5 202.289 375.5C203.489 375.5 204.463 375.767 205.209 376.3C205.956 376.833 206.343 377.627 206.369 378.68H204.569C204.556 378.253 204.356 377.893 203.969 377.6C203.596 377.293 203.036 377.14 202.289 377.14C201.543 377.14 200.976 377.293 200.589 377.6C200.203 377.907 200.009 378.293 200.009 378.76C200.009 379.16 200.143 379.48 200.409 379.72C200.689 379.96 201.143 380.113 201.769 380.18L202.929 380.3C204.076 380.42 204.996 380.74 205.689 381.26C206.383 381.767 206.729 382.487 206.729 383.42C206.729 384.087 206.536 384.68 206.149 385.2C205.776 385.707 205.256 386.107 204.589 386.4C203.923 386.68 203.156 386.82 202.289 386.82Z" fill="black"/>
<path d="M22 442C27.523 442 32 446.477 32 452C32 457.523 27.523 462 22 462C16.477 462 12 457.523 12 452C12 446.477 16.477 442 22 442ZM22 444C19.8783 444 17.8434 444.843 16.3431 446.343C14.8429 447.843 14 449.878 14 452C14 454.122 14.8429 456.157 16.3431 457.657C17.8434 459.157 19.8783 460 22 460C24.1217 460 26.1566 459.157 27.6569 457.657C29.1571 456.157 30 454.122 30 452C30 449.878 29.1571 447.843 27.6569 446.343C26.1566 444.843 24.1217 444 22 444ZM22 455C22.3978 455 22.7794 455.158 23.0607 455.439C23.342 455.721 23.5 456.102 23.5 456.5C23.5 456.898 23.342 457.279 23.0607 457.561C22.7794 457.842 22.3978 458 22 458C21.6022 458 21.2206 457.842 20.9393 457.561C20.658 457.279 20.5 456.898 20.5 456.5C20.5 456.102 20.658 455.721 20.9393 455.439C21.2206 455.158 21.6022 455 22 455ZM22 450.5C22.3978 450.5 22.7794 450.658 23.0607 450.939C23.342 451.221 23.5 451.602 23.5 452C23.5 452.398 23.342 452.779 23.0607 453.061C22.7794 453.342 22.3978 453.5 22 453.5C21.6022 453.5 21.2206 453.342 20.9393 453.061C20.658 452.779 20.5 452.398 20.5 452C20.5 451.602 20.658 451.221 20.9393 450.939C21.2206 450.658 21.6022 450.5 22 450.5ZM22 446C22.3978 446 22.7794 446.158 23.0607 446.439C23.342 446.721 23.5 447.102 23.5 447.5C23.5 447.898 23.342 448.279 23.0607 448.561C22.7794 448.842 22.3978 449 22 449C21.6022 449 21.2206 448.842 20.9393 448.561C20.658 448.279 20.5 447.898 20.5 447.5C20.5 447.102 20.658 446.721 20.9393 446.439C21.2206 446.158 21.6022 446 22 446Z" fill="black"/>
<path d="M46.12 458.5V443.9H48.72L53.04 453.64H53.36L57.66 443.9H60.28V458.5H58.32V446.04L58.46 446.08L54.32 455.48H51.92L47.76 446.08L47.92 446.04V458.5H46.12ZM69.1584 458.86C68.2251 458.86 67.4051 458.7 66.6984 458.38C65.9918 458.06 65.3918 457.64 64.8984 457.12C64.4184 456.587 64.0518 455.993 63.7984 455.34C63.5584 454.687 63.4384 454.02 63.4384 453.34V452.98C63.4384 452.3 63.5651 451.633 63.8184 450.98C64.0718 450.313 64.4451 449.72 64.9384 449.2C65.4318 448.667 66.0318 448.247 66.7384 447.94C67.4451 447.62 68.2518 447.46 69.1584 447.46C70.0651 447.46 70.8718 447.62 71.5784 447.94C72.2851 448.247 72.8851 448.667 73.3784 449.2C73.8718 449.72 74.2451 450.313 74.4984 450.98C74.7518 451.633 74.8784 452.3 74.8784 452.98V453.34C74.8784 454.02 74.7518 454.687 74.4984 455.34C74.2584 455.993 73.8918 456.587 73.3984 457.12C72.9184 457.64 72.3251 458.06 71.6184 458.38C70.9118 458.7 70.0918 458.86 69.1584 458.86ZM69.1584 457.14C69.9584 457.14 70.6384 456.967 71.1984 456.62C71.7718 456.26 72.2051 455.78 72.4984 455.18C72.8051 454.58 72.9584 453.907 72.9584 453.16C72.9584 452.4 72.8051 451.72 72.4984 451.12C72.1918 450.52 71.7518 450.047 71.1784 449.7C70.6184 449.353 69.9451 449.18 69.1584 449.18C68.3851 449.18 67.7118 449.353 67.1384 449.7C66.5651 450.047 66.1251 450.52 65.8184 451.12C65.5118 451.72 65.3584 452.4 65.3584 453.16C65.3584 453.907 65.5051 454.58 65.7984 455.18C66.1051 455.78 66.5384 456.26 67.0984 456.62C67.6718 456.967 68.3584 457.14 69.1584 457.14ZM77.7541 458.5V447.82H79.2741V452.22H79.1941C79.1941 450.66 79.5341 449.52 80.2141 448.8C80.9074 448.067 81.9407 447.7 83.3141 447.7H83.6741V449.42H82.9941C81.9274 449.42 81.1074 449.707 80.5341 450.28C79.9607 450.84 79.6741 451.653 79.6741 452.72V458.5H77.7541ZM90.38 458.86C89.4467 458.86 88.64 458.7 87.96 458.38C87.28 458.06 86.7267 457.64 86.3 457.12C85.8733 456.587 85.5533 455.993 85.34 455.34C85.14 454.687 85.04 454.02 85.04 453.34V452.98C85.04 452.287 85.14 451.613 85.34 450.96C85.5533 450.307 85.8733 449.72 86.3 449.2C86.7267 448.667 87.2667 448.247 87.92 447.94C88.5867 447.62 89.3667 447.46 90.26 447.46C91.42 447.46 92.3733 447.713 93.12 448.22C93.88 448.713 94.44 449.353 94.8 450.14C95.1733 450.927 95.36 451.767 95.36 452.66V453.52H85.88V452.08H93.96L93.52 452.86C93.52 452.1 93.4 451.447 93.16 450.9C92.92 450.34 92.56 449.907 92.08 449.6C91.6 449.293 90.9933 449.14 90.26 449.14C89.5 449.14 88.8667 449.313 88.36 449.66C87.8667 450.007 87.4933 450.48 87.24 451.08C87 451.68 86.88 452.373 86.88 453.16C86.88 453.92 87 454.607 87.24 455.22C87.4933 455.82 87.88 456.3 88.4 456.66C88.92 457.007 89.58 457.18 90.38 457.18C91.22 457.18 91.9 456.993 92.42 456.62C92.9533 456.247 93.2733 455.813 93.38 455.32H95.18C95.0333 456.053 94.74 456.687 94.3 457.22C93.86 457.753 93.3067 458.16 92.64 458.44C91.9733 458.72 91.22 458.86 90.38 458.86Z" fill="black"/>
</svg>
